<?xml version="1.0" encoding="UTF-8" standalone="no"?>
<svg
   xmlns:dc="http://purl.org/dc/elements/1.1/"
   xmlns:cc="http://creativecommons.org/ns#"
   xmlns:rdf="http://www.w3.org/1999/02/22-rdf-syntax-ns#"
   xmlns:svg="http://www.w3.org/2000/svg"
   xmlns="http://www.w3.org/2000/svg"
   viewBox="0 0 1188.48 288"
   height="288"
   width="1188.48"
   xml:space="preserve"
   id="svg2"
   version="1.1"><metadata
     id="metadata8"><rdf:RDF><cc:Work
         rdf:about=""><dc:format>image/svg+xml</dc:format><dc:type
           rdf:resource="http://purl.org/dc/dcmitype/StillImage" /></cc:Work></rdf:RDF></metadata><defs
     id="defs6" /><g
     transform="matrix(1.3333333,0,0,-1.3333333,0,288)"
     id="g10"><g
       transform="scale(0.1)"
       id="g12"><path
         id="path14"
         style="fill:#ffffff;fill-opacity:1;fill-rule:nonzero;stroke:none"
         d="M 8913.6,0 H 0 V 2160 H 8913.6 V 0" /><path
         id="path16"
         style="fill:#298d3f;fill-opacity:1;fill-rule:nonzero;stroke:none"
         d="m 4796.71,1595.67 231.6,-423.78 -486.95,-423.57 z" /><path
         id="path18"
         style="fill:#f16818;fill-opacity:1;fill-rule:nonzero;stroke:none"
         d="m 4634.25,1595.67 231.57,-423.78 -487.2,-423.57 z" /><path
         id="path20"
         style="fill:#676a6d;fill-opacity:1;fill-rule:nonzero;stroke:none"
         d="m 1338.35,980.891 c -17.92,-34.461 -53.82,-59.403 -96.65,-64.34 h -31.73 -622.427 l 52.57,173.249 h 480.237 148.34 32 c 24.04,-5.42 42.83,-23.06 48.35,-45.2 0.8,-4.95 1.31,-10.01 1.31,-15.13 0,-2.7 -0.28,-5.33 -0.43,-7.85 -0.08,-1.11 -0.08,-2.25 -0.21,-3.26 z M 742.961,1428.75 h 661.799 c 18.11,-4.11 33.31,-15.04 42.09,-29.59 3.15,-10.2 5.05,-20.95 5.05,-32.03 0,-5.99 -0.59,-11.79 -1.49,-17.39 l -1.84,-5.6 -6.34,-21.21 c -17,-36.81 -54.57,-63.71 -99.52,-68.74 H 1312.12 689.992 Z M 1432.17,776.16 c 22.88,16.172 37.79,36.059 44.94,59.68 l 77.15,253.96 c 6.99,23.07 3.94,42.4 -9.22,58.1 -13.1,15.58 -32.53,23.44 -58.12,23.44 25.59,0 49.82,8.04 72.62,24.11 22.68,16.05 37.54,35.68 44.51,58.74 l 77.09,253.59 c 7.46,24.68 4.96,45.02 -7.64,61.08 -12.46,16.17 -32.09,24.19 -58.58,24.19 H 610.145 L 354.793,752.129 H 1359.61 c 25.65,0 49.88,7.992 72.56,24.031" /><path
         id="path22"
         style="fill:#676a6d;fill-opacity:1;fill-rule:nonzero;stroke:none"
         d="m 2733.65,1592.39 -101.01,-337.74 h -724.76 l 100.91,337.74 H 1828.54 L 1577.86,754.211 h 180.3 l 100.64,336.319 h 724.85 L 2482.97,754.211 h 180.29 l 250.68,838.179 h -180.29" /><path
         id="path24"
         style="fill:#676a6d;fill-opacity:1;fill-rule:nonzero;stroke:none"
         d="m 2966.41,751.5 h -181.48 l 252.28,837.99 h 181.46 L 2966.41,751.5" /><path
         id="path26"
         style="fill:#676a6d;fill-opacity:1;fill-rule:nonzero;stroke:none"
         d="m 4480.41,1590.24 -752.88,-586.75 -262.54,401.38 -121.24,185.37 h -3.43 l -57.09,-190.43 -193.64,-645.13 h 180.25 l 135.68,452.25 287.55,-453.36 475.94,401.33 -119.38,-400.22 h 180.34 l 175.97,586.56 74.76,249 h -0.29" /><path
         id="path28"
         style="fill:#676a6d;fill-opacity:1;fill-rule:nonzero;stroke:none"
         d="m 341.273,598.219 h 8.985 c 11.035,0 19.219,1.293 24.535,3.929 5.187,2.704 8.668,7.09 10.293,13.274 1.855,6.816 0.93,11.566 -2.602,14.269 -3.566,2.707 -11.168,4.129 -23.019,4.129 h -8.828 z m -14.164,-54.84 h 8 c 8.102,0 14.317,0.312 18.477,0.949 4.129,0.57 7.605,1.5 10.371,2.902 3.246,1.668 6.113,3.821 8.352,6.641 2.218,2.777 3.828,5.801 4.718,9.149 1.012,3.921 0.914,7.371 -0.191,10.351 -1.113,2.899 -3.281,5.16 -6.25,6.828 -2.07,0.942 -4.406,1.672 -7.043,2.16 -2.77,0.352 -6.43,0.641 -11.07,0.641 h -7.121 -7.969 z m -27.113,-16.789 32.297,123.949 h 35.973 c 10.238,0 17.75,-0.379 22.468,-1.418 4.571,-0.93 8.434,-2.5 11.25,-4.742 3.711,-2.809 6.211,-6.457 7.411,-11.027 1.257,-4.571 1.257,-9.633 -0.27,-15.231 -1.719,-6.531 -4.918,-12.121 -9.645,-16.539 -4.722,-4.473 -10.55,-7.57 -17.644,-9.242 7.973,-1.11 13.621,-4.469 17,-9.91 3.379,-5.418 3.98,-12.309 1.891,-20.641 -1.391,-4.937 -3.547,-9.801 -6.848,-14.301 -3.145,-4.558 -6.938,-8.367 -11.609,-11.457 -4.743,-3.453 -10.211,-5.871 -16.36,-7.402 -6.113,-1.367 -16.066,-2.039 -29.691,-2.039 h -36.223" /><path
         id="path30"
         style="fill:#676a6d;fill-opacity:1;fill-rule:nonzero;stroke:none"
         d="m 475.488,526.59 32.278,123.941 h 23.199 l -11.996,-45.672 h 70.398 l 11.852,45.672 H 624.41 L 592.102,526.59 h -23.211 l 15.66,60.25 h -70.172 l -15.742,-60.25 h -23.149" /><path
         id="path32"
         style="fill:#676a6d;fill-opacity:1;fill-rule:nonzero;stroke:none"
         d="m 728.012,575.34 h 39.832 l -7.274,28.199 c -0.363,1.883 -0.742,3.93 -1.027,6.281 -0.316,2.34 -0.547,4.95 -0.727,7.852 -1.445,-2.731 -2.968,-5.262 -4.41,-7.582 -1.523,-2.34 -3.047,-4.488 -4.359,-6.551 z m 51.5,-48.738 -7.824,31.929 H 714.953 L 690.266,526.602 H 665.773 L 768.539,655.48 803.996,526.602 h -24.484" /><path
         id="path34"
         style="fill:#676a6d;fill-opacity:1;fill-rule:nonzero;stroke:none"
         d="m 919.555,597.75 h 4.258 c 12.175,0 20.71,1.23 25.351,3.762 4.707,2.41 7.871,6.918 9.527,13.148 1.754,6.828 0.879,11.699 -2.73,14.481 -3.578,2.789 -11.258,4.211 -22.934,4.211 h -4.246 z m -5.52,-15.691 -14.48,-55.469 h -21.774 l 32.328,123.961 h 32.325 c 9.449,0 16.718,-0.481 21.722,-1.5 4.91,-1.141 8.903,-2.903 11.949,-5.332 3.645,-3.09 6.067,-6.93 7.305,-11.68 1.067,-4.68 0.985,-9.891 -0.492,-15.59 -2.555,-9.918 -7.426,-17.668 -14.316,-23.258 -6.993,-5.691 -16.028,-9.07 -27.094,-10.203 l 34.515,-56.398 h -26.312 l -33.07,55.469 h -2.606" /><path
         id="path36"
         style="fill:#676a6d;fill-opacity:1;fill-rule:nonzero;stroke:none"
         d="m 1092.77,575.34 h 39.91 l -7.27,28.199 c -0.42,1.883 -0.75,3.93 -1.07,6.281 -0.31,2.34 -0.51,4.95 -0.74,7.852 -1.39,-2.731 -2.88,-5.262 -4.31,-7.582 -1.57,-2.34 -3.05,-4.488 -4.39,-6.551 z m 51.57,-48.738 -7.87,31.929 h -56.53 l -24.92,-31.929 h -24.36 l 102.59,128.878 35.6,-128.878 h -24.51" /><path
         id="path38"
         style="fill:#676a6d;fill-opacity:1;fill-rule:nonzero;stroke:none"
         d="M 1305.65,633.539 1277.73,526.59 h -23.08 l 27.71,106.949 h -37.83 l 4.44,16.992 h 98.92 l -4.54,-16.992 h -37.7" /><path
         id="path40"
         style="fill:#676a6d;fill-opacity:1;fill-rule:nonzero;stroke:none"
         d="m 1514.66,526.59 32.27,123.941 h 23.26 L 1537.8,526.59 h -23.14" /><path
         id="path42"
         style="fill:#676a6d;fill-opacity:1;fill-rule:nonzero;stroke:none"
         d="m 1631.59,526.59 33.62,128.879 71.05,-75.739 c 1.76,-2.14 3.66,-4.48 5.6,-6.808 1.9,-2.524 3.79,-5.231 5.83,-8.32 l 22.32,85.929 h 21.49 l -33.49,-128.711 -72.47,77.051 c -1.89,2.149 -3.74,4.301 -5.47,6.641 -1.76,2.328 -3.28,4.75 -4.67,7.289 l -22.45,-86.211 h -21.36" /><path
         id="path44"
         style="fill:#676a6d;fill-opacity:1;fill-rule:nonzero;stroke:none"
         d="M 1926.26,633.539 1898.52,526.59 h -23.29 l 27.88,106.949 h -37.93 l 4.58,16.992 h 98.73 l -4.3,-16.992 h -37.93" /><path
         id="path46"
         style="fill:#676a6d;fill-opacity:1;fill-rule:nonzero;stroke:none"
         d="m 2014.26,526.59 32.32,123.941 h 79.75 l -4.44,-17 h -56.47 l -8.14,-31.191 h 56.46 l -4.64,-17.66 h -56.46 l -10.37,-40.078 h 56.45 L 2094,526.59 h -79.74" /><path
         id="path48"
         style="fill:#676a6d;fill-opacity:1;fill-rule:nonzero;stroke:none"
         d="m 2222.7,597.75 h 4.26 c 12.28,0 20.76,1.23 25.33,3.762 4.74,2.41 7.89,6.918 9.45,13.148 1.85,6.828 0.97,11.699 -2.64,14.481 -3.64,2.789 -11.2,4.211 -22.88,4.211 h -4.16 z m -5.47,-15.691 -14.53,-55.469 h -21.72 l 32.28,123.961 h 32.42 c 9.53,0 16.67,-0.481 21.62,-1.5 4.96,-1.141 8.99,-2.903 12.08,-5.332 3.62,-3.09 5.98,-6.93 7.28,-11.68 1.01,-4.68 0.88,-9.891 -0.6,-15.59 -2.5,-9.918 -7.4,-17.668 -14.36,-23.258 -6.95,-5.691 -15.93,-9.07 -27.04,-10.203 l 34.41,-56.398 h -26.18 l -33.01,55.469 h -2.65" /><path
         id="path50"
         style="fill:#676a6d;fill-opacity:1;fill-rule:nonzero;stroke:none"
         d="m 2353.21,526.59 32.33,123.941 h 79.55 l -4.34,-17 h -56.51 l -7.95,-31 h 56.43 l -4.67,-17.672 h -56.45 l -15.15,-58.269 h -23.24" /><path
         id="path52"
         style="fill:#676a6d;fill-opacity:1;fill-rule:nonzero;stroke:none"
         d="m 2554.1,575.34 h 39.82 l -7.22,28.199 c -0.42,1.883 -0.74,3.93 -1.07,6.281 -0.36,2.34 -0.64,4.95 -0.74,7.852 -1.47,-2.731 -3.05,-5.262 -4.49,-7.582 -1.48,-2.34 -2.87,-4.488 -4.34,-6.551 z m 51.45,-48.738 -7.95,31.929 h -56.45 l -24.87,-31.929 h -24.41 l 102.66,128.878 35.56,-128.878 h -24.54" /><path
         id="path54"
         style="fill:#676a6d;fill-opacity:1;fill-rule:nonzero;stroke:none"
         d="m 2839.48,620.469 c -5.38,4.863 -11.39,8.5 -17.97,10.929 -6.78,2.43 -14.13,3.641 -22.28,3.641 -15.46,0 -29.36,-4.418 -41.46,-13.078 -11.93,-8.699 -19.85,-19.902 -23.43,-33.723 -3.43,-13.457 -1.61,-24.5 5.7,-33.148 7.27,-8.699 18.06,-13.078 32.61,-13.078 8.43,0 16.85,1.379 25.19,3.918 8.3,2.601 16.63,6.539 24.92,11.769 l -5.79,-22.808 c -7.27,-3.911 -14.78,-6.801 -22.7,-8.672 -7.87,-1.981 -16.02,-2.879 -24.64,-2.879 -10.92,0 -20.59,1.469 -29.03,4.539 -8.56,3.18 -15.37,7.793 -20.97,13.742 -5.34,6 -8.95,12.988 -10.62,21.027 -1.56,8.012 -1.1,16.622 1.15,25.692 2.43,9.031 6.48,17.648 12.3,25.57 5.87,7.942 13.09,15.059 21.79,21.129 8.58,6.063 17.98,10.633 27.94,13.82 10.01,3.161 20.28,4.661 30.83,4.661 8.54,0 16.26,-1.02 23.35,-3.168 6.99,-2.063 13.52,-5.34 19.58,-9.512 l -6.47,-20.371" /><path
         id="path56"
         style="fill:#676a6d;fill-opacity:1;fill-rule:nonzero;stroke:none"
         d="m 2904.12,526.59 32.28,123.941 h 79.6 l -4.44,-17 h -56.4 l -8.2,-31.191 h 56.55 l -4.64,-17.66 h -56.4 l -10.61,-40.078 h 56.59 l -4.67,-18.012 h -79.66" /><path
         id="path58"
         style="fill:#676a6d;fill-opacity:1;fill-rule:nonzero;stroke:none"
         d="m 3191.34,526.59 32.29,123.941 h 79.65 l -4.44,-17 h -56.45 l -8.07,-31 h 56.55 l -4.69,-17.672 h -56.45 l -15.14,-58.269 h -23.25" /><path
         id="path60"
         style="fill:#676a6d;fill-opacity:1;fill-rule:nonzero;stroke:none"
         d="m 3494.73,588.34 c 1.72,6.238 1.9,12.23 0.74,17.91 -1.16,5.621 -3.51,10.672 -7.32,15.051 -3.69,4.379 -8.47,7.66 -14.17,10.109 -5.75,2.211 -12.13,3.43 -19.22,3.43 -6.94,0 -13.93,-1.121 -20.88,-3.43 -6.9,-2.359 -13.43,-5.73 -19.5,-10.109 -6.11,-4.301 -11.21,-9.352 -15.24,-14.949 -4.13,-5.711 -6.9,-11.661 -8.57,-18.012 -1.7,-6.281 -1.9,-12.27 -0.78,-17.738 1.17,-5.731 3.67,-10.661 7.41,-15.051 3.89,-4.403 8.56,-7.762 14.32,-10.09 5.68,-2.242 12.08,-3.449 19.22,-3.449 6.89,0 13.78,1.207 20.74,3.449 6.95,2.328 13.24,5.687 19.44,10.09 6.11,4.39 11.22,9.418 15.42,15.121 4.03,5.519 6.81,11.387 8.39,17.668 m 24.32,0 c -2.37,-8.781 -6.4,-17.199 -12.27,-25.059 -5.84,-7.73 -13.11,-14.742 -22.09,-20.91 -8.95,-6.16 -18.4,-10.93 -28.58,-14.199 -10.05,-3.262 -20.15,-4.832 -30.3,-4.832 -10.28,0 -19.73,1.57 -28.1,4.93 -8.43,3.25 -15.57,7.941 -21.12,14.101 -5.7,6.168 -9.35,13.078 -11.07,20.809 -1.81,7.871 -1.49,16.261 0.8,25.16 2.3,8.851 6.47,17.269 12.21,25.121 5.84,7.84 13.15,14.84 22.05,21 8.98,6.168 18.43,10.93 28.53,14.121 10.04,3.258 20.23,4.738 30.56,4.738 10.28,0 19.58,-1.48 28.01,-4.738 8.34,-3.191 15.33,-7.953 21.03,-14.121 5.65,-6.262 9.4,-13.27 11.07,-21.191 1.81,-7.848 1.53,-16.168 -0.73,-24.93" /><path
         id="path62"
         style="fill:#676a6d;fill-opacity:1;fill-rule:nonzero;stroke:none"
         d="m 3631.58,597.75 h 4.26 c 12.27,0 20.79,1.23 25.47,3.762 4.64,2.41 7.78,6.918 9.49,13.148 1.72,6.828 0.93,11.699 -2.74,14.481 -3.61,2.789 -11.28,4.211 -22.91,4.211 h -4.26 z m -5.47,-15.691 -14.45,-55.469 h -21.67 l 32.23,123.961 h 32.32 c 9.5,0 16.77,-0.481 21.73,-1.5 4.9,-1.141 8.89,-2.903 11.99,-5.332 3.67,-3.09 6.04,-6.93 7.28,-11.68 1.16,-4.68 1.06,-9.891 -0.47,-15.59 -2.6,-9.918 -7.4,-17.668 -14.39,-23.258 -6.92,-5.691 -15.99,-9.07 -27.1,-10.203 l 34.5,-56.398 h -26.31 l -33.02,55.469 h -2.64" /><path
         id="path64"
         style="fill:#676a6d;fill-opacity:1;fill-rule:nonzero;stroke:none"
         d="m 4015.03,587.871 c 0,0.93 0.52,3.551 0.93,7.93 0.42,3.648 0.8,6.551 1.03,8.969 -1.36,-2.801 -2.93,-5.598 -4.73,-8.399 -1.8,-2.902 -3.94,-5.711 -6.3,-8.699 l -54.56,-66.133 -19.83,67.43 c -0.81,2.812 -1.51,5.511 -1.94,8.062 -0.41,2.598 -0.77,5.219 -0.96,7.739 -0.8,-2.622 -1.77,-5.321 -2.83,-8.161 -1.16,-2.879 -2.6,-5.839 -4.31,-8.937 l -31.17,-61.082 h -21.39 l 67.57,129.281 21.52,-78.269 c 0.47,-1.211 0.83,-3.282 1.45,-6.18 0.61,-2.902 1.34,-6.551 2.04,-10.75 2.36,3.656 5.6,8.156 10.04,13.648 1.12,1.399 2,2.52 2.55,3.36 l 61.55,78.191 0.93,-129.281 h -21.59 v 61.281" /><path
         id="path66"
         style="fill:#676a6d;fill-opacity:1;fill-rule:nonzero;stroke:none"
         d="m 4253.72,588.34 c 1.67,6.238 1.95,12.23 0.74,17.91 -1.11,5.621 -3.71,10.672 -7.4,15.051 -3.85,4.379 -8.44,7.66 -14.27,10.109 -5.65,2.211 -12.04,3.43 -19.04,3.43 -6.99,0 -14.06,-1.121 -20.97,-3.43 -6.91,-2.359 -13.39,-5.73 -19.59,-10.109 -6.01,-4.301 -11.07,-9.352 -15.14,-14.949 -4.11,-5.711 -7,-11.661 -8.62,-18.012 -1.62,-6.281 -1.86,-12.27 -0.75,-17.738 1.26,-5.731 3.56,-10.661 7.41,-15.051 3.89,-4.403 8.62,-7.762 14.32,-10.09 5.65,-2.242 12.07,-3.449 19.09,-3.449 7.02,0 14.01,1.207 20.87,3.449 6.81,2.328 13.37,5.687 19.51,10.09 6.11,4.39 11.14,9.418 15.32,15.121 4.06,5.519 6.89,11.387 8.52,17.668 m 24.17,0 c -2.27,-8.781 -6.3,-17.199 -12.17,-25.059 -5.79,-7.73 -13.21,-14.742 -22.05,-20.91 -8.97,-6.16 -18.54,-10.93 -28.53,-14.199 -10.14,-3.262 -20.28,-4.832 -30.47,-4.832 -10.24,0 -19.6,1.57 -28.11,4.93 -8.44,3.25 -15.41,7.941 -21.03,14.101 -5.7,6.168 -9.3,13.078 -11.12,20.809 -1.76,7.871 -1.53,16.261 0.84,25.16 2.33,8.851 6.38,17.269 12.18,25.121 5.8,7.84 13.16,14.84 22.04,21 8.95,6.168 18.42,10.93 28.45,14.121 10.04,3.258 20.32,4.738 30.65,4.738 10.28,0 19.59,-1.48 27.92,-4.738 8.39,-3.191 15.48,-7.953 21.11,-14.121 5.67,-6.262 9.37,-13.27 11.12,-21.191 1.83,-7.848 1.49,-16.168 -0.83,-24.93" /><path
         id="path68"
         style="fill:#676a6d;fill-opacity:1;fill-rule:nonzero;stroke:none"
         d="m 4348.84,526.59 33.49,128.879 71.03,-75.739 c 1.96,-2.14 3.86,-4.48 5.65,-6.808 1.99,-2.524 3.94,-5.231 5.93,-8.32 l 22.37,85.929 h 21.44 l -33.57,-128.711 -72.42,77.051 c -1.91,2.149 -3.71,4.301 -5.42,6.641 -1.73,2.328 -3.35,4.75 -4.82,7.289 L 4370.1,526.59 h -21.26" /><path
         id="path70"
         style="fill:#676a6d;fill-opacity:1;fill-rule:nonzero;stroke:none"
         d="m 4569.6,526.59 32.23,123.941 h 79.76 l -4.45,-17 h -56.55 l -8,-31.191 h 56.5 l -4.67,-17.66 h -56.51 l -10.42,-40.078 h 56.59 l -4.74,-18.012 h -79.74" /><path
         id="path72"
         style="fill:#676a6d;fill-opacity:1;fill-rule:nonzero;stroke:none"
         d="m 4766.99,526.59 14.77,56.781 -30.61,67.16 h 24.36 l 19.02,-42.031 c 0.42,-1.02 0.93,-2.512 1.64,-4.211 0.54,-1.758 1.2,-3.641 1.65,-5.687 1.59,1.976 2.98,3.738 4.41,5.636 1.53,1.75 3.01,3.332 4.48,4.832 l 41.5,41.461 h 23.26 l -66.69,-67.16 -14.73,-56.781 h -23.06" /><path
         id="path74"
         style="fill:#6a6c6b;fill-opacity:1;fill-rule:nonzero;stroke:none"
         d="m 5501.81,677.512 h 23.45 l -21.79,-91.051 c -3.24,-13.5 -2.64,-23.68 1.84,-30.449 4.46,-6.793 12.74,-10.192 24.87,-10.192 12.03,0 21.9,3.399 29.63,10.192 7.72,6.769 13.2,16.949 16.43,30.449 l 21.81,91.051 h 23.74 l -22.31,-93.282 c -4.86,-20.281 -13.51,-35.48 -25.88,-45.519 -12.41,-10.082 -28.64,-15.121 -48.73,-15.121 -20.12,0 -33.91,5.031 -41.43,15.07 -7.51,10.02 -8.85,25.219 -3.97,45.57 l 22.34,93.282" /><path
         id="path76"
         style="fill:#6a6c6b;fill-opacity:1;fill-rule:nonzero;stroke:none"
         d="m 5618.65,527.59 37.31,155.859 70.9,-91.648 c 1.9,-2.582 3.81,-5.352 5.69,-8.301 1.9,-2.93 3.82,-6.23 5.8,-9.949 l 24.91,103.961 h 21.96 l -37.31,-155.762 -72.37,93.301 c -1.95,2.527 -3.76,5.179 -5.45,8 -1.69,2.777 -3.23,5.719 -4.64,8.801 L 5640.5,527.59 h -21.85" /><path
         id="path78"
         style="fill:#6a6c6b;fill-opacity:1;fill-rule:nonzero;stroke:none"
         d="m 5783.26,527.59 35.89,149.922 h 23.75 L 5807.03,527.59 h -23.77" /><path
         id="path80"
         style="fill:#6a6c6b;fill-opacity:1;fill-rule:nonzero;stroke:none"
         d="m 5841.17,527.59 35.88,149.922 h 81.56 l -4.95,-20.672 h -57.8 l -8.94,-37.391 h 57.79 l -5.14,-21.398 h -57.79 l -16.86,-70.461 h -23.75" /><path
         id="path82"
         style="fill:#6a6c6b;fill-opacity:1;fill-rule:nonzero;stroke:none"
         d="m 5948.88,527.59 35.89,149.922 h 23.76 L 5972.64,527.59 h -23.76" /><path
         id="path84"
         style="fill:#6a6c6b;fill-opacity:1;fill-rule:nonzero;stroke:none"
         d="m 6006.78,527.59 35.89,149.922 h 81.55 l -4.95,-20.672 h -57.79 l -9.01,-37.602 h 57.8 l -5.12,-21.406 h -57.81 l -11.58,-48.441 h 57.79 l -5.22,-21.801 h -81.55" /><path
         id="path86"
         style="fill:#6a6c6b;fill-opacity:1;fill-rule:nonzero;stroke:none"
         d="m 6144.62,549.621 h 19.97 c 10.97,0 19.41,0.738 25.26,2.25 5.83,1.508 11.2,4.027 16.12,7.57 6.69,4.84 12.26,10.868 16.77,18.079 4.47,7.191 7.85,15.582 10.15,25.14 2.29,9.559 2.9,17.942 1.86,25.129 -1.03,7.211 -3.73,13.242 -8.09,18.102 -3.28,3.519 -7.6,6.058 -13,7.57 -5.4,1.488 -14.22,2.23 -26.47,2.23 h -8.58 -8.6 z m -29.02,-22.019 35.89,149.918 h 32.04 c 20.81,0 35.22,-1.079 43.2,-3.231 7.97,-2.141 14.54,-5.75 19.73,-10.801 6.86,-6.617 11.22,-15.136 13.1,-25.488 1.88,-10.391 1.21,-22.238 -1.97,-35.559 -3.17,-13.293 -8.19,-25.089 -15.02,-35.382 -6.8,-10.27 -15.24,-18.739 -25.29,-25.43 -7.59,-5.059 -15.73,-8.66 -24.41,-10.82 -8.66,-2.161 -21.62,-3.207 -38.85,-3.207 h -6.38 -32.04" /><path
         id="path88"
         style="fill:#6a6c6b;fill-opacity:1;fill-rule:nonzero;stroke:none"
         d="m 6373.25,614.84 h 6.1 c 13.17,0 22.31,1.48 27.4,4.41 5.12,2.93 8.55,8.121 10.34,15.551 1.91,7.988 0.89,13.629 -3,16.91 -3.91,3.277 -12.16,4.918 -24.72,4.918 h -6.11 z m -6.26,-19.969 -16.13,-67.281 h -22.23 l 35.88,149.922 h 35.94 c 10.65,0 18.34,-0.602 23.09,-1.782 4.72,-1.191 8.63,-3.16 11.71,-5.898 3.76,-3.492 6.22,-8.184 7.39,-14.082 1.19,-5.918 0.93,-12.41 -0.76,-19.5 -1.71,-7.109 -4.57,-13.648 -8.61,-19.668 -4.04,-6.012 -8.74,-10.723 -14.16,-14.133 -4.37,-2.73 -9.21,-4.679 -14.52,-5.84 -5.31,-1.168 -13.28,-1.738 -23.92,-1.738 h -4.69 -8.99" /><path
         id="path90"
         style="fill:#6a6c6b;fill-opacity:1;fill-rule:nonzero;stroke:none"
         d="m 6471.2,586.461 h 40.74 l -6.8,34.211 c -0.34,2.187 -0.63,4.687 -0.89,7.539 -0.25,2.828 -0.42,5.988 -0.54,9.469 -1.57,-3.27 -3.16,-6.328 -4.73,-9.16 -1.57,-2.86 -3.12,-5.442 -4.64,-7.848 z m 51.59,-58.871 -7.34,38.601 h -57.9 l -26.21,-38.601 h -24.94 l 108.07,155.871 33.37,-155.871 h -25.05" /><path
         id="path92"
         style="fill:#6a6c6b;fill-opacity:1;fill-rule:nonzero;stroke:none"
         d="m 6581.89,527.59 16.41,68.621 -29.73,81.301 h 24.95 l 18.46,-50.883 c 0.43,-1.328 0.92,-3.02 1.52,-5.141 0.59,-2.117 1.18,-4.386 1.71,-6.859 1.5,2.391 3.02,4.66 4.56,6.781 1.52,2.11 3.09,4.039 4.64,5.828 l 43.47,50.274 h 23.76 l -69.79,-81.301 -16.4,-68.621 h -23.56" /><path
         id="path94"
         style="fill:#6a6c6b;fill-opacity:1;fill-rule:nonzero;stroke:none"
         d="m 6808.55,601.641 c 0,1.14 0.35,4.359 1.01,9.609 0.5,4.371 0.89,7.988 1.2,10.871 -1.43,-3.43 -3.1,-6.851 -5,-10.25 -1.92,-3.402 -4.14,-6.902 -6.64,-10.441 l -57.36,-79.891 -18.71,81.531 c -0.81,3.34 -1.41,6.59 -1.84,9.719 -0.4,3.152 -0.68,6.242 -0.79,9.332 -0.83,-3.16 -1.86,-6.43 -3.13,-9.871 -1.24,-3.469 -2.78,-7.059 -4.52,-10.82 l -33.36,-73.84 h -21.84 l 71.93,156.289 20.47,-94.629 c 0.31,-1.52 0.74,-4 1.26,-7.48 0.52,-3.481 1.14,-7.79 1.86,-12.918 2.42,4.296 5.92,9.769 10.51,16.398 1.21,1.77 2.14,3.129 2.76,4.102 l 64.76,94.527 -2.05,-156.289 h -22.09 l 1.57,74.051" /><path
         id="path96"
         style="fill:#6a6c6b;fill-opacity:1;fill-rule:nonzero;stroke:none"
         d="m 6848.03,527.59 35.89,149.922 h 81.56 l -4.96,-20.672 h -57.79 l -9.02,-37.602 h 57.82 l -5.12,-21.406 H 6888.6 L 6877,549.391 h 57.81 l -5.24,-21.801 h -81.54" /><path
         id="path98"
         style="fill:#6a6c6b;fill-opacity:1;fill-rule:nonzero;stroke:none"
         d="m 6956.84,527.59 37.31,155.859 70.9,-91.648 c 1.91,-2.582 3.81,-5.352 5.7,-8.301 1.89,-2.93 3.81,-6.23 5.82,-9.949 l 24.88,103.961 h 21.96 l -37.3,-155.762 -72.38,93.301 c -1.95,2.527 -3.76,5.179 -5.45,8 -1.69,2.777 -3.23,5.719 -4.63,8.801 L 6978.68,527.59 h -21.84" /><path
         id="path100"
         style="fill:#6a6c6b;fill-opacity:1;fill-rule:nonzero;stroke:none"
         d="m 7199.21,656.84 -30.95,-129.25 h -23.75 l 30.92,129.25 h -38.81 l 4.95,20.672 h 101.22 l -4.95,-20.672 h -38.63" /><path
         id="path102"
         style="fill:#6a6c6b;fill-opacity:1;fill-rule:nonzero;stroke:none"
         d="m 7223.85,557.602 21.13,9.007 c 0.2,-6.679 2.27,-11.808 6.21,-15.308 3.96,-3.539 9.64,-5.27 17.13,-5.27 7.03,0 13.15,2.008 18.25,6.047 5.13,4.004 8.52,9.402 10.12,16.172 2.11,8.809 -3.14,16.648 -15.72,23.551 -1.76,1.019 -3.12,1.758 -4.06,2.238 -14.16,8.082 -23.17,15.359 -26.96,21.883 -3.78,6.519 -4.58,14.5 -2.3,23.898 2.91,12.231 9.33,22.121 19.24,29.7 9.89,7.589 21.4,11.371 34.51,11.371 10.77,0 19.29,-2.141 25.52,-6.403 6.25,-4.277 9.79,-10.386 10.65,-18.398 l -20.9,-9.801 c -1.81,4.711 -4.19,8.152 -7.16,10.352 -2.97,2.179 -6.72,3.269 -11.25,3.269 -6.39,0 -11.87,-1.73 -16.46,-5.129 -4.54,-3.402 -7.54,-7.972 -8.92,-13.711 -2.15,-9.031 4.1,-17.429 18.74,-25.199 1.12,-0.621 2.01,-1.109 2.64,-1.449 12.8,-6.801 21.12,-13.481 24.97,-20.012 3.81,-6.531 4.57,-14.66 2.24,-24.422 -3.4,-14.199 -10.46,-25.488 -21.18,-33.859 -10.73,-8.367 -23.51,-12.539 -38.34,-12.539 -12.44,0 -21.94,2.93 -28.5,8.82 -6.53,5.86 -9.75,14.262 -9.6,25.192" /><path
         id="path104"
         style="fill:#6a6c6b;fill-opacity:1;fill-rule:nonzero;stroke:none"
         d="m 7399.37,527.59 35.89,149.922 h 23.76 l -35.9,-149.922 h -23.75" /><path
         id="path106"
         style="fill:#6a6c6b;fill-opacity:1;fill-rule:nonzero;stroke:none"
         d="m 7457.27,527.59 37.31,155.859 70.9,-91.648 c 1.91,-2.582 3.81,-5.352 5.7,-8.301 1.88,-2.93 3.81,-6.23 5.81,-9.949 l 24.88,103.961 h 21.97 l -37.29,-155.762 -72.4,93.301 c -1.94,2.527 -3.75,5.179 -5.44,8 -1.69,2.777 -3.23,5.719 -4.63,8.801 L 7479.12,527.59 h -21.85" /><path
         id="path108"
         style="fill:#6a6c6b;fill-opacity:1;fill-rule:nonzero;stroke:none"
         d="m 7699.63,656.84 -30.94,-129.25 h -23.76 l 30.93,129.25 h -38.82 l 4.95,20.672 h 101.24 l -4.97,-20.672 h -38.63" /><path
         id="path110"
         style="fill:#6a6c6b;fill-opacity:1;fill-rule:nonzero;stroke:none"
         d="m 7725.48,527.59 35.91,149.922 h 81.55 l -4.95,-20.672 h -57.79 l -9.02,-37.602 h 57.8 l -5.12,-21.406 h -57.79 l -11.6,-48.441 h 57.79 l -5.22,-21.801 h -81.56" /><path
         id="path112"
         style="fill:#6a6c6b;fill-opacity:1;fill-rule:nonzero;stroke:none"
         d="m 7878.66,613.609 h 4.3 c 12.58,0 21.28,1.5 26.12,4.512 4.85,3 8.2,8.32 10.01,15.969 2,8.25 1.17,14.082 -2.46,17.461 -3.61,3.39 -11.39,5.09 -23.37,5.09 h -4.31 z m -6.04,-18.949 -16.06,-67.058 h -22.26 l 35.91,149.898 h 33.13 c 9.71,0 17.08,-0.641 22.14,-1.93 5.05,-1.289 9.11,-3.449 12.2,-6.449 3.64,-3.609 6.01,-8.281 7.11,-14.031 1.09,-5.731 0.81,-12.031 -0.83,-18.84 -2.85,-12 -7.94,-21.43 -15.24,-28.219 -7.28,-6.781 -16.6,-10.871 -27.97,-12.23 l 33.99,-68.199 h -26.86 l -32.55,67.058 h -2.71" /><path
         id="path114"
         style="fill:#6a6c6b;fill-opacity:1;fill-rule:nonzero;stroke:none"
         d="m 7948.82,527.59 35.89,149.922 h 81.55 l -4.96,-20.672 h -57.79 l -8.95,-37.391 h 57.8 l -5.14,-21.398 h -57.79 l -16.87,-70.461 h -23.74" /><path
         id="path116"
         style="fill:#6a6c6b;fill-opacity:1;fill-rule:nonzero;stroke:none"
         d="m 8093.78,586.461 h 40.73 l -6.79,34.211 c -0.33,2.187 -0.64,4.687 -0.9,7.539 -0.24,2.828 -0.41,5.988 -0.51,9.469 -1.59,-3.27 -3.18,-6.328 -4.74,-9.16 -1.59,-2.86 -3.13,-5.442 -4.64,-7.848 z m 51.6,-58.871 -7.34,38.601 h -57.89 l -26.22,-38.601 h -24.95 l 108.06,155.871 33.39,-155.871 h -25.05" /><path
         id="path118"
         style="fill:#6a6c6b;fill-opacity:1;fill-rule:nonzero;stroke:none"
         d="m 8325.07,641.07 c -5.29,5.86 -11.37,10.258 -18.15,13.192 -6.78,2.949 -14.29,4.41 -22.54,4.41 -15.99,0 -30.22,-5.25 -42.75,-15.762 -12.55,-10.519 -20.81,-24.14 -24.82,-40.879 -3.9,-16.172 -2.19,-29.519 5.06,-40.011 7.22,-10.532 18.25,-15.809 33.1,-15.809 8.65,0 17.25,1.59 25.83,4.738 8.57,3.11 17.2,7.871 25.91,14.242 l -6.6,-27.562 c -7.51,-4.707 -15.31,-8.238 -23.39,-10.559 -8.06,-2.308 -16.49,-3.48 -25.28,-3.48 -11.16,0 -21.08,1.879 -29.64,5.64 -8.58,3.758 -15.62,9.282 -21.04,16.579 -5.41,7.179 -8.87,15.621 -10.35,25.351 -1.52,9.731 -0.93,20.09 1.69,31.09 2.64,10.98 7.01,21.301 13.17,30.961 6.12,9.668 13.71,18.168 22.71,25.461 9.02,7.379 18.67,12.969 28.97,16.75 10.27,3.797 20.87,5.68 31.8,5.68 8.57,0 16.46,-1.282 23.64,-3.84 7.16,-2.551 13.78,-6.434 19.88,-11.641 l -7.2,-24.551" /><path
         id="path120"
         style="fill:#6a6c6b;fill-opacity:1;fill-rule:nonzero;stroke:none"
         d="m 8327.38,527.59 35.88,149.922 h 81.56 l -4.95,-20.672 h -57.8 l -9,-37.602 h 57.79 l -5.11,-21.406 h -57.82 l -11.59,-48.441 h 57.81 l -5.24,-21.801 h -81.53" /><path
         id="path122"
         style="fill:#676a6d;fill-opacity:1;fill-rule:nonzero;stroke:none"
         d="m 7894.08,808.172 h -163.3 l 227.12,820.218 h 163.31 L 7894.08,808.172" /><path
         id="path124"
         style="fill:#676a6d;fill-opacity:1;fill-rule:nonzero;stroke:none"
         d="m 7809.3,1602.46 c -11.33,15.61 -28.78,23.48 -52.5,23.48 h -897.99 l -44.48,-160.64 h 163.39 v 0.1 h 653.53 l -47.54,-171.69 h -653.53 l 0.05,0.36 H 6766.91 L 6631.35,804.699 h 163.43 l 90.96,328.471 h 734.62 c 22.91,0 44.53,7.82 64.84,23.46 20.24,15.67 33.6,35 40,58.06 l 90.95,328.52 c 6.63,23.84 4.35,43.63 -6.85,59.25" /><path
         id="path126"
         style="fill:#676a6d;fill-opacity:1;fill-rule:nonzero;stroke:none"
         d="m 6536.19,859.371 c -9.03,-32.48 -38.59,-54.949 -72.29,-54.949 h -842.58 c -22.96,0 -40.01,7.828 -51.23,23.469 -11.21,15.648 -13.61,35.007 -7.21,58.058 l 205.58,740.061 h 163.45 L 5748.28,965.02 h 653.85 l 183.63,660.99 h 163.41 L 6536.19,859.371" /><path
         id="path128"
         style="fill:#26803b;fill-opacity:1;fill-rule:nonzero;stroke:none"
         d="M 8403.24,1626.86 8610,1215.69 8175.36,804.609 Z" /><path
         id="path130"
         style="fill:#e8671c;fill-opacity:1;fill-rule:nonzero;stroke:none"
         d="M 8258.29,1626.86 8464.91,1215.69 8030.1,804.609 Z" /><path
         id="path132"
         style="fill:#66686c;fill-opacity:1;fill-rule:nonzero;stroke:none"
         d="M 5236.01,1512.71 V 684.23" /><path
         id="path134"
         style="fill:#66686c;fill-opacity:1;fill-rule:nonzero;stroke:none"
         d="m 5244.26,558.609 h -16.51 V 1638.46 h 16.51 V 558.609" /></g></g></svg>