<svg xmlns="http://www.w3.org/2000/svg" fill="none" viewBox="0 0 103 373">
  <defs/>
  <path stroke="#D5DEE2" stroke-miterlimit="10" d="M81.2074 15.136c-3.8853 0-7.0349-3.1645-7.0349-7.068 0-3.90355 3.1496-7.068 7.0349-7.068 3.8852 0 7.0348 3.16445 7.0348 7.068 0 3.9035-3.1496 7.068-7.0348 7.068z"/>
  <path fill="#D5DEE2" d="M44.43 15.136c-3.8852 0-7.0348-3.1645-7.0348-7.068C37.3952 4.16445 40.5448 1 44.43 1c3.8853 0 7.0348 3.16445 7.0348 7.068 0 3.9035-3.1495 7.068-7.0348 7.068zM81.2074 47.5c-3.8853 0-7.0349-3.1645-7.0349-7.068 0-3.9036 3.1496-7.068 7.0349-7.068 3.8852 0 7.0348 3.1644 7.0348 7.068 0 3.9035-3.1496 7.068-7.0348 7.068z"/>
  <path stroke="#D5DEE2" stroke-miterlimit="10" d="M44.43 47.5c-3.8852 0-7.0348-3.1645-7.0348-7.068 0-3.9036 3.1496-7.068 7.0348-7.068 3.8853 0 7.0348 3.1644 7.0348 7.068 0 3.9035-3.1495 7.068-7.0348 7.068z"/>
  <path fill="#D5DEE2" d="M7.65073 47.5C3.7655 47.5.615906 44.3355.615906 40.432c0-3.9036 3.149594-7.068 7.034824-7.068 3.88527 0 7.03477 3.1644 7.03477 7.068 0 3.9035-3.1495 7.068-7.03477 7.068zM81.2093 79.988c-3.8852 0-7.0348-3.1644-7.0348-7.068 0-3.9035 3.1496-7.068 7.0348-7.068 3.8853 0 7.0348 3.1645 7.0348 7.068 0 3.9036-3.1495 7.068-7.0348 7.068z"/>
  <path stroke="#D5DEE2" stroke-miterlimit="10" d="M44.43 79.988c-3.8852 0-7.0348-3.1644-7.0348-7.068 0-3.9035 3.1496-7.068 7.0348-7.068 3.8853 0 7.0348 3.1645 7.0348 7.068 0 3.9036-3.1495 7.068-7.0348 7.068zM7.65268 79.988c-3.88523 0-7.034821-3.1644-7.034821-7.068 0-3.9035 3.149591-7.068 7.034821-7.068 3.88522 0 7.03482 3.1645 7.03482 7.068 0 3.9036-3.1496 7.068-7.03482 7.068zM81.2093 112.352c-3.8852 0-7.0348-3.164-7.0348-7.068 0-3.904 3.1496-7.068 7.0348-7.068 3.8853 0 7.0348 3.164 7.0348 7.068 0 3.904-3.1495 7.068-7.0348 7.068z"/>
  <path fill="#D5DEE2" d="M44.43 112.352c-3.8852 0-7.0348-3.164-7.0348-7.068 0-3.904 3.1496-7.068 7.0348-7.068 3.8853 0 7.0348 3.164 7.0348 7.068 0 3.904-3.1495 7.068-7.0348 7.068z"/>
  <path stroke="#D5DEE2" stroke-miterlimit="10" d="M7.65268 112.352c-3.88523 0-7.034821-3.164-7.034821-7.068 0-3.904 3.149591-7.068 7.034821-7.068 3.88522 0 7.03482 3.164 7.03482 7.068 0 3.904-3.1496 7.068-7.03482 7.068zM81.2093 144.84c-3.8852 0-7.0348-3.164-7.0348-7.068 0-3.904 3.1496-7.068 7.0348-7.068 3.8853 0 7.0348 3.164 7.0348 7.068 0 3.904-3.1495 7.068-7.0348 7.068z"/>
  <path fill="#D5DEE2" d="M44.43 144.84c-3.8852 0-7.0348-3.164-7.0348-7.068 0-3.904 3.1496-7.068 7.0348-7.068 3.8853 0 7.0348 3.164 7.0348 7.068 0 3.904-3.1495 7.068-7.0348 7.068z"/>
  <path stroke="#D5DEE2" stroke-miterlimit="10" d="M81.2093 177.204c-3.8852 0-7.0348-3.164-7.0348-7.068 0-3.904 3.1496-7.068 7.0348-7.068 3.8853 0 7.0348 3.164 7.0348 7.068 0 3.904-3.1495 7.068-7.0348 7.068z"/>
  <path fill="#D5DEE2" d="M44.43 177.204c-3.8852 0-7.0348-3.164-7.0348-7.068 0-3.904 3.1496-7.068 7.0348-7.068 3.8853 0 7.0348 3.164 7.0348 7.068 0 3.904-3.1495 7.068-7.0348 7.068zM7.65268 177.204c-3.88523 0-7.034821-3.164-7.034821-7.068 0-3.904 3.149591-7.068 7.034821-7.068 3.88522 0 7.03482 3.164 7.03482 7.068 0 3.904-3.1496 7.068-7.03482 7.068zM81.2093 209.692c-3.8852 0-7.0348-3.164-7.0348-7.068 0-3.904 3.1496-7.068 7.0348-7.068 3.8853 0 7.0348 3.164 7.0348 7.068 0 3.904-3.1495 7.068-7.0348 7.068z"/>
  <path stroke="#D5DEE2" stroke-miterlimit="10" d="M44.43 209.692c-3.8852 0-7.0348-3.164-7.0348-7.068 0-3.904 3.1496-7.068 7.0348-7.068 3.8853 0 7.0348 3.164 7.0348 7.068 0 3.904-3.1495 7.068-7.0348 7.068zM7.65268 209.692c-3.88523 0-7.034821-3.164-7.034821-7.068 0-3.904 3.149591-7.068 7.034821-7.068 3.88522 0 7.03482 3.164 7.03482 7.068 0 3.904-3.1496 7.068-7.03482 7.068zM81.2093 242.056c-3.8852 0-7.0348-3.164-7.0348-7.068 0-3.904 3.1496-7.068 7.0348-7.068 3.8853 0 7.0348 3.164 7.0348 7.068 0 3.904-3.1495 7.068-7.0348 7.068zM44.43 242.056c-3.8852 0-7.0348-3.164-7.0348-7.068 0-3.904 3.1496-7.068 7.0348-7.068 3.8853 0 7.0348 3.164 7.0348 7.068 0 3.904-3.1495 7.068-7.0348 7.068z"/>
  <path fill="#D5DEE2" d="M7.65268 242.056c-3.88523 0-7.034821-3.164-7.034821-7.068 0-3.904 3.149591-7.068 7.034821-7.068 3.88522 0 7.03482 3.164 7.03482 7.068 0 3.904-3.1496 7.068-7.03482 7.068z"/>
  <path stroke="#D5DEE2" stroke-miterlimit="10" d="M81.2093 274.544c-3.8852 0-7.0348-3.164-7.0348-7.068 0-3.904 3.1496-7.068 7.0348-7.068 3.8853 0 7.0348 3.164 7.0348 7.068 0 3.904-3.1495 7.068-7.0348 7.068zM44.43 274.544c-3.8852 0-7.0348-3.164-7.0348-7.068 0-3.904 3.1496-7.068 7.0348-7.068 3.8853 0 7.0348 3.164 7.0348 7.068 0 3.904-3.1495 7.068-7.0348 7.068z"/>
  <path fill="#D5DEE2" d="M7.65268 274.544c-3.88523 0-7.034821-3.164-7.034821-7.068 0-3.904 3.149591-7.068 7.034821-7.068 3.88522 0 7.03482 3.164 7.03482 7.068 0 3.904-3.1496 7.068-7.03482 7.068z"/>
  <path stroke="#D5DEE2" stroke-miterlimit="10" d="M44.43 371.76c-3.8852 0-7.0348-3.164-7.0348-7.068 0-3.904 3.1496-7.068 7.0348-7.068 3.8853 0 7.0348 3.164 7.0348 7.068 0 3.904-3.1495 7.068-7.0348 7.068z"/>
  <path fill="#D5DEE2" d="M7.65268 371.76c-3.88523 0-7.034821-3.164-7.034821-7.068 0-3.904 3.149591-7.068 7.034821-7.068 3.88522 0 7.03482 3.164 7.03482 7.068 0 3.904-3.1496 7.068-7.03482 7.068zM81.2093 306.908c-3.8852 0-7.0348-3.164-7.0348-7.068 0-3.904 3.1496-7.068 7.0348-7.068 3.8853 0 7.0348 3.164 7.0348 7.068 0 3.904-3.1495 7.068-7.0348 7.068z"/>
</svg>
