<svg xmlns="http://www.w3.org/2000/svg" fill="none" viewBox="0 0 105 307">
  <defs/>
  <path fill="#fff" d="M23.1967 13.036c3.9137 0 7.0864-3.18148 7.0864-7.10602s-3.1727-7.10601-7.0864-7.10601c-3.9137 0-7.0863 3.18147-7.0863 7.10601 0 3.92454 3.1726 7.10602 7.0863 7.10602z"/>
  <path stroke="#fff" stroke-miterlimit="10" d="M60.2446 13.036c3.9136 0 7.0863-3.18148 7.0863-7.10602s-3.1727-7.10601-7.0863-7.10601c-3.9137 0-7.0864 3.18147-7.0864 7.10601 0 3.92454 3.1727 7.10602 7.0864 7.10602zM97.2924 13.036c3.9136 0 7.0866-3.18148 7.0866-7.10602s-3.173-7.10601-7.0866-7.10601c-3.9137 0-7.0863 3.18147-7.0863 7.10601 0 3.92454 3.1726 7.10602 7.0863 7.10602zM23.1967 45.5739c3.9137 0 7.0864-3.1814 7.0864-7.106 0-3.9245-3.1727-7.106-7.0864-7.106-3.9137 0-7.0863 3.1815-7.0863 7.106 0 3.9246 3.1726 7.106 7.0863 7.106z"/>
  <path fill="#fff" d="M60.2446 45.5739c3.9136 0 7.0863-3.1814 7.0863-7.106 0-3.9245-3.1727-7.106-7.0863-7.106-3.9137 0-7.0864 3.1815-7.0864 7.106 0 3.9246 3.1727 7.106 7.0864 7.106z"/>
  <path stroke="#fff" stroke-miterlimit="10" d="M97.2924 45.5739c3.9136 0 7.0866-3.1814 7.0866-7.106 0-3.9245-3.173-7.106-7.0866-7.106-3.9137 0-7.0863 3.1815-7.0863 7.106 0 3.9246 3.1726 7.106 7.0863 7.106zM23.1967 78.2366c3.9137 0 7.0864-3.1815 7.0864-7.106 0-3.9245-3.1727-7.106-7.0864-7.106-3.9137 0-7.0863 3.1815-7.0863 7.106 0 3.9245 3.1726 7.106 7.0863 7.106z"/>
  <path fill="#fff" d="M60.2446 78.2366c3.9136 0 7.0863-3.1815 7.0863-7.106 0-3.9245-3.1727-7.106-7.0863-7.106-3.9137 0-7.0864 3.1815-7.0864 7.106 0 3.9245 3.1727 7.106 7.0864 7.106z"/>
  <path stroke="#fff" stroke-miterlimit="10" d="M23.1967 110.775c3.9137 0 7.0864-3.182 7.0864-7.106 0-3.9249-3.1727-7.1064-7.0864-7.1064-3.9137 0-7.0863 3.1815-7.0863 7.1064 0 3.924 3.1726 7.106 7.0863 7.106z"/>
  <path fill="#fff" d="M60.2446 110.775c3.9136 0 7.0863-3.182 7.0863-7.106 0-3.9249-3.1727-7.1064-7.0863-7.1064-3.9137 0-7.0864 3.1815-7.0864 7.1064 0 3.924 3.1727 7.106 7.0864 7.106zM97.2924 110.775c3.9136 0 7.0866-3.182 7.0866-7.106 0-3.9249-3.173-7.1064-7.0866-7.1064-3.9137 0-7.0863 3.1815-7.0863 7.1064 0 3.924 3.1726 7.106 7.0863 7.106zM23.1967 143.437c3.9137 0 7.0864-3.181 7.0864-7.106 0-3.924-3.1727-7.106-7.0864-7.106-3.9137 0-7.0863 3.182-7.0863 7.106 0 3.925 3.1726 7.106 7.0863 7.106z"/>
  <path stroke="#fff" stroke-miterlimit="10" d="M60.2446 143.437c3.9136 0 7.0863-3.181 7.0863-7.106 0-3.924-3.1727-7.106-7.0863-7.106-3.9137 0-7.0864 3.182-7.0864 7.106 0 3.925 3.1727 7.106 7.0864 7.106zM97.2924 143.437c3.9136 0 7.0866-3.181 7.0866-7.106 0-3.924-3.173-7.106-7.0866-7.106-3.9137 0-7.0863 3.182-7.0863 7.106 0 3.925 3.1726 7.106 7.0863 7.106zM23.1967 175.975c3.9137 0 7.0864-3.181 7.0864-7.106 0-3.924-3.1727-7.106-7.0864-7.106-3.9137 0-7.0863 3.182-7.0863 7.106 0 3.925 3.1726 7.106 7.0863 7.106zM60.2446 175.975c3.9136 0 7.0863-3.181 7.0863-7.106 0-3.924-3.1727-7.106-7.0863-7.106-3.9137 0-7.0864 3.182-7.0864 7.106 0 3.925 3.1727 7.106 7.0864 7.106z"/>
  <path fill="#fff" d="M97.2924 175.975c3.9136 0 7.0866-3.181 7.0866-7.106 0-3.924-3.173-7.106-7.0866-7.106-3.9137 0-7.0863 3.182-7.0863 7.106 0 3.925 3.1726 7.106 7.0863 7.106z"/>
  <path stroke="#fff" stroke-miterlimit="10" d="M23.1967 208.638c3.9137 0 7.0864-3.182 7.0864-7.106 0-3.925-3.1727-7.106-7.0864-7.106-3.9137 0-7.0863 3.181-7.0863 7.106 0 3.924 3.1726 7.106 7.0863 7.106zM60.2446 208.638c3.9136 0 7.0863-3.182 7.0863-7.106 0-3.925-3.1727-7.106-7.0863-7.106-3.9137 0-7.0864 3.181-7.0864 7.106 0 3.924 3.1727 7.106 7.0864 7.106z"/>
  <path fill="#fff" d="M97.2924 208.638c3.9136 0 7.0866-3.182 7.0866-7.106 0-3.925-3.173-7.106-7.0866-7.106-3.9137 0-7.0863 3.181-7.0863 7.106 0 3.924 3.1726 7.106 7.0863 7.106z"/>
  <path stroke="#fff" stroke-miterlimit="10" d="M60.2446 306.377c3.9136 0 7.0863-3.182 7.0863-7.106 0-3.925-3.1727-7.106-7.0863-7.106-3.9137 0-7.0864 3.181-7.0864 7.106 0 3.924 3.1727 7.106 7.0864 7.106z"/>
  <path fill="#fff" d="M97.2924 306.377c3.9136 0 7.0866-3.182 7.0866-7.106 0-3.925-3.173-7.106-7.0866-7.106-3.9137 0-7.0863 3.181-7.0863 7.106 0 3.924 3.1726 7.106 7.0863 7.106zM23.1967 241.176c3.9137 0 7.0864-3.181 7.0864-7.106s-3.1727-7.106-7.0864-7.106c-3.9137 0-7.0863 3.181-7.0863 7.106s3.1726 7.106 7.0863 7.106z"/>
</svg>
