<svg xmlns="http://www.w3.org/2000/svg" fill="none" viewBox="0 0 105 374">
  <defs/>
  <path stroke="#D5DEE2" stroke-miterlimit="10" d="M23.1962 14.8353c3.9137 0 7.0864-3.1814 7.0864-7.10596 0-3.92454-3.1727-7.106003-7.0864-7.106003-3.9137 0-7.0863 3.181463-7.0863 7.106003 0 3.92456 3.1726 7.10596 7.0863 7.10596z"/>
  <path fill="#D5DEE2" d="M60.2441 14.8353c3.9137 0 7.0864-3.1814 7.0864-7.10596 0-3.92454-3.1727-7.106003-7.0864-7.106003-3.9137 0-7.0863 3.181463-7.0863 7.106003 0 3.92456 3.1726 7.10596 7.0863 7.10596zM23.1962 47.3733c3.9137 0 7.0864-3.1814 7.0864-7.106 0-3.9245-3.1727-7.106-7.0864-7.106-3.9137 0-7.0863 3.1815-7.0863 7.106 0 3.9246 3.1726 7.106 7.0863 7.106z"/>
  <path stroke="#D5DEE2" stroke-miterlimit="10" d="M60.2441 47.3733c3.9137 0 7.0864-3.1814 7.0864-7.106 0-3.9245-3.1727-7.106-7.0864-7.106-3.9137 0-7.0863 3.1815-7.0863 7.106 0 3.9246 3.1726 7.106 7.0863 7.106z"/>
  <path fill="#D5DEE2" d="M97.2921 47.3733c3.9139 0 7.0859-3.1814 7.0859-7.106 0-3.9245-3.172-7.106-7.0859-7.106-3.9137 0-7.0864 3.1815-7.0864 7.106 0 3.9246 3.1727 7.106 7.0864 7.106zM23.1962 80.036c3.9137 0 7.0864-3.1814 7.0864-7.106 0-3.9245-3.1727-7.106-7.0864-7.106-3.9137 0-7.0863 3.1815-7.0863 7.106 0 3.9246 3.1726 7.106 7.0863 7.106z"/>
  <path stroke="#D5DEE2" stroke-miterlimit="10" d="M60.2441 80.036c3.9136 0 7.0863-3.1814 7.0863-7.106 0-3.9245-3.1727-7.106-7.0863-7.106-3.9137 0-7.0864 3.1815-7.0864 7.106 0 3.9246 3.1727 7.106 7.0864 7.106zM97.2921 80.036c3.9139 0 7.0859-3.1814 7.0859-7.106 0-3.9245-3.172-7.106-7.0859-7.106-3.9137 0-7.0864 3.1815-7.0864 7.106 0 3.9246 3.1727 7.106 7.0864 7.106zM23.1962 112.574c3.9137 0 7.0864-3.181 7.0864-7.106s-3.1727-7.106-7.0864-7.106c-3.9137 0-7.0863 3.181-7.0863 7.106s3.1726 7.106 7.0863 7.106z"/>
  <path fill="#D5DEE2" d="M60.2441 112.574c3.9136 0 7.0863-3.181 7.0863-7.106s-3.1727-7.106-7.0863-7.106c-3.9137 0-7.0864 3.181-7.0864 7.106s3.1727 7.106 7.0864 7.106z"/>
  <path stroke="#D5DEE2" stroke-miterlimit="10" d="M97.2921 112.574c3.9139 0 7.0859-3.181 7.0859-7.106s-3.172-7.106-7.0859-7.106c-3.9137 0-7.0864 3.181-7.0864 7.106s3.1727 7.106 7.0864 7.106zM23.1962 145.237c3.9137 0 7.0864-3.182 7.0864-7.106 0-3.925-3.1727-7.106-7.0864-7.106-3.9137 0-7.0863 3.181-7.0863 7.106 0 3.924 3.1726 7.106 7.0863 7.106z"/>
  <path fill="#D5DEE2" d="M60.2441 145.237c3.9136 0 7.0863-3.182 7.0863-7.106 0-3.925-3.1727-7.106-7.0863-7.106-3.9137 0-7.0864 3.181-7.0864 7.106 0 3.924 3.1727 7.106 7.0864 7.106z"/>
  <path stroke="#D5DEE2" stroke-miterlimit="10" d="M23.1962 177.775c3.9137 0 7.0864-3.182 7.0864-7.106 0-3.925-3.1727-7.106-7.0864-7.106-3.9137 0-7.0863 3.181-7.0863 7.106 0 3.924 3.1726 7.106 7.0863 7.106z"/>
  <path fill="#D5DEE2" d="M60.2441 177.775c3.9136 0 7.0863-3.182 7.0863-7.106 0-3.925-3.1727-7.106-7.0863-7.106-3.9137 0-7.0864 3.181-7.0864 7.106 0 3.924 3.1727 7.106 7.0864 7.106zM97.2921 177.775c3.9139 0 7.0859-3.182 7.0859-7.106 0-3.925-3.172-7.106-7.0859-7.106-3.9137 0-7.0864 3.181-7.0864 7.106 0 3.924 3.1727 7.106 7.0864 7.106zM23.1962 210.437c3.9137 0 7.0864-3.181 7.0864-7.106 0-3.924-3.1727-7.106-7.0864-7.106-3.9137 0-7.0863 3.182-7.0863 7.106 0 3.925 3.1726 7.106 7.0863 7.106z"/>
  <path stroke="#D5DEE2" stroke-miterlimit="10" d="M60.2441 210.437c3.9136 0 7.0863-3.181 7.0863-7.106 0-3.924-3.1727-7.106-7.0863-7.106-3.9137 0-7.0864 3.182-7.0864 7.106 0 3.925 3.1727 7.106 7.0864 7.106zM97.2921 210.437c3.9139 0 7.0859-3.181 7.0859-7.106 0-3.924-3.172-7.106-7.0859-7.106-3.9137 0-7.0864 3.182-7.0864 7.106 0 3.925 3.1727 7.106 7.0864 7.106zM23.1962 242.975c3.9137 0 7.0864-3.181 7.0864-7.106 0-3.924-3.1727-7.106-7.0864-7.106-3.9137 0-7.0863 3.182-7.0863 7.106 0 3.925 3.1726 7.106 7.0863 7.106zM60.2441 242.975c3.9136 0 7.0863-3.181 7.0863-7.106 0-3.924-3.1727-7.106-7.0863-7.106-3.9137 0-7.0864 3.182-7.0864 7.106 0 3.925 3.1727 7.106 7.0864 7.106z"/>
  <path fill="#D5DEE2" d="M97.2921 242.975c3.9139 0 7.0859-3.181 7.0859-7.106 0-3.924-3.172-7.106-7.0859-7.106-3.9137 0-7.0864 3.182-7.0864 7.106 0 3.925 3.1727 7.106 7.0864 7.106z"/>
  <path stroke="#D5DEE2" stroke-miterlimit="10" d="M23.1962 275.638c3.9137 0 7.0864-3.181 7.0864-7.106s-3.1727-7.106-7.0864-7.106c-3.9137 0-7.0863 3.181-7.0863 7.106s3.1726 7.106 7.0863 7.106zM60.2441 275.638c3.9136 0 7.0863-3.181 7.0863-7.106s-3.1727-7.106-7.0863-7.106c-3.9137 0-7.0864 3.181-7.0864 7.106s3.1727 7.106 7.0864 7.106z"/>
  <path fill="#D5DEE2" d="M97.2921 275.638c3.9139 0 7.0859-3.181 7.0859-7.106s-3.172-7.106-7.0859-7.106c-3.9137 0-7.0864 3.181-7.0864 7.106s3.1727 7.106 7.0864 7.106z"/>
  <path stroke="#D5DEE2" stroke-miterlimit="10" d="M60.2441 373.377c3.9136 0 7.0863-3.182 7.0863-7.106 0-3.925-3.1727-7.106-7.0863-7.106-3.9137 0-7.0864 3.181-7.0864 7.106 0 3.924 3.1727 7.106 7.0864 7.106z"/>
  <path fill="#D5DEE2" d="M97.2921 373.377c3.9139 0 7.0859-3.182 7.0859-7.106 0-3.925-3.172-7.106-7.0859-7.106-3.9137 0-7.0864 3.181-7.0864 7.106 0 3.924 3.1727 7.106 7.0864 7.106zM23.1962 308.176c3.9137 0 7.0864-3.181 7.0864-7.106s-3.1727-7.106-7.0864-7.106c-3.9137 0-7.0863 3.181-7.0863 7.106s3.1726 7.106 7.0863 7.106z"/>
</svg>
