<svg xmlns="http://www.w3.org/2000/svg" fill="none" viewBox="0 0 64 79">
  <defs/>
  <path fill="#fff" d="M44.5459 43.0728l4.592-.4944c.738-.0824 1.312-.6592 1.312-1.4008v-3.9552c0-.7416-.574-1.4008-1.312-1.4008l-4.592-.4944c-.164 0-.328-.1648-.328-.2472-.164-.4944-.41-.9888-.656-1.4832-.082-.1648-.082-.3296.082-.4944l2.952-3.6256c.492-.5768.41-1.4008-.082-1.9776l-2.788-2.8016c-.492-.4944-1.394-.5768-1.968-.0824l-3.608 2.9664c-.164.0824-.328.1648-.492.0824-.492-.2472-.984-.4944-1.476-.6592-.164-.0824-.246-.1648-.246-.3296l-.492-4.6144c-.082-.7416-.656-1.3184-1.394-1.3184h-3.936c-.738 0-1.394.5768-1.394 1.3184l-.492 4.6144c0 .1648-.164.3296-.246.3296-.492.1648-.984.412-1.476.6592-.164.0824-.328.0824-.492-.0824l-3.608-2.9664c-.574-.4944-1.394-.412-1.968.0824l-2.788 2.8016c-.492.4944-.574 1.4008-.082 1.9776l2.952 3.6256c.082.1648.164.3296.082.4944-.246.4944-.492.9888-.656 1.4832-.082.1648-.164.2472-.328.2472l-4.592.4944c-.738.0824-1.312.6592-1.312 1.4008v3.9552c0 .7416.574 1.4008 1.312 1.4008l4.592.4944c.164 0 .328.1648.328.2472.164.4944.41.9888.656 1.4832.082.1648.082.3296-.082.4944l-2.952 3.6256c-.492.5768-.41 1.4008.082 1.9776l2.788 2.8016c.492.4944 1.394.5768 1.968.0824l3.608-2.9664c.164-.0824.328-.1648.492-.0824.492.2472.984.4944 1.476.6592.164.0824.246.1648.246.3296l.492 4.6144c.082.7416.656 1.3184 1.394 1.3184h3.936c.738 0 1.394-.5768 1.394-1.3184l.492-4.6144c0-.1648.164-.3296.246-.3296.492-.1648.984-.412 1.476-.6592.164-.0824.328-.0824.492.0824l3.608 2.9664c.574.4944 1.394.412 1.968-.0824l2.788-2.8016c.492-.4944.574-1.4008.082-1.9776l-2.952-3.6256c-.082-.1648-.164-.3296-.082-.4944.246-.4944.492-.9888.656-1.4832 0-.0824.164-.2472.328-.2472zm-12.546 2.9664c-3.772 0-6.806-3.0488-6.806-6.8392s3.034-6.8392 6.806-6.8392c3.772 0 6.806 3.0488 6.806 6.8392s-3.034 6.8392-6.806 6.8392z"/>
  <path fill="#fff" d="M3.62684 56.4216c1.558 0 2.87-1.3184 2.87-2.884V23.7912c0-6.0976 4.91996-11.0416 10.98796-11.0416h29.274v3.9552c0 1.1536.574 2.1424 1.558 2.6368.492.2472.984.412 1.476.412.574 0 1.148-.1648 1.64-.4944l10.578-6.8392c.902-.5768 1.394-1.4832 1.394-2.5544 0-1.0712-.492-1.9776-1.394-2.5544L51.3508.554399c-.902-.5767997-2.132-.6592-3.034-.0824-.984.4944-1.558 1.565601-1.558 2.636801V7.064h-29.274C8.21884 7.064.756836 14.5624.756836 23.7912v29.7464c0 1.648 1.230004 2.884 2.870004 2.884zM60.3718 21.9784c-1.558 0-2.87 1.3184-2.87 2.884v29.7464c0 6.0976-4.92 11.0416-10.988 11.0416h-29.192v-3.9552c0-1.1536-.574-2.1424-1.558-2.6368-.984-.4944-2.132-.4944-3.116.0824L2.06978 65.98c-.902.5768-1.393999 1.4832-1.393999 2.5544 0 1.0712.491999 1.9776 1.393999 2.5544L12.6478 77.928c.492.3296 1.066.4944 1.64.4944.492 0 .984-.1648 1.476-.412.984-.4944 1.558-1.5656 1.558-2.6368v-3.9552h29.274c9.184 0 16.728-7.4984 16.728-16.8096V24.8624c-.082-1.648-1.312-2.884-2.952-2.884z"/>
</svg>
