<svg xmlns="http://www.w3.org/2000/svg" fill="none" viewBox="0 0 78 79">
  <defs/>
  <path fill="#fff" d="M77.4581 27.664L62.9441 3.10879c-1.722-2.966405-4.92-3.790404-7.38-2.307204L16.8601 23.956c-2.132 1.236-3.034 3.7904-2.05 6.3448-3.362 2.1424-8.85599 23.2368-8.85599 23.2368l-4.756 3.9552c-1.065996.9064-1.393996 2.3896-.819996 3.708l8.364006 15.656c.73799 1.3184 2.29598 1.8952 3.68998 1.3184 2.624-1.1536 6.97-2.8016 10.906-3.3784 3.034-.412 6.806-3.3784 7.38-4.2024 1.968-2.3896 21.894-27.0272 21.894-27.0272 1.968-2.472 1.476-6.18-1.148-7.9928-2.378-1.648-5.658-1.0712-7.544 1.1536l-9.43 11.6184c-1.476 1.8128-4.182 1.5656-5.33-.412l-4.92-8.3224 41.41-24.8024L74.0141 28.9c.41.7416.164 1.7304-.574 2.2248l-15.826 9.476v.1648c0 1.236-.41 2.472-1.23 3.4608l-9.676 11.948.246.412c.984 1.8128 3.28 2.3896 5.084 1.4008l.574-.3296c1.804-.9888 2.542-3.1312 2.05-5.0264.41.1648.82.1648 1.23.1648.738 0 1.476-.1648 2.132-.5768 2.05-1.1536 2.788-3.8728 1.64-5.9328.41.1648.82.1648 1.312.1648.738 0 1.476-.1648 2.132-.5768 1.968-1.0712 2.706-3.5432 1.804-5.5208l10.414-6.18c2.46-1.4008 3.28-4.6144 2.132-6.5096zm-57.154 5.2736l-2.214-3.708c-.492-.7416-.164-1.7304.574-2.2248l38.704-23.15441c.738-.412 1.722-.1648 2.214.5768l2.214 3.708-41.492 24.80241z"/>
  <path fill="#fff" d="M59.7465 33.5144l7.298-4.3672c.738-.412.984-1.4008.574-2.1424l-2.46-4.2024c-.41-.7416-1.394-.9888-2.132-.5768l-7.298 4.3672c-.738.412-.984 1.4008-.574 2.1424l2.46 4.2024c.41.7416 1.394.9888 2.132.5768z"/>
</svg>
