<svg xmlns="http://www.w3.org/2000/svg" fill="none" viewBox="0 0 56 95">
  <defs/>
  <path fill="#fff" d="M39.4137 54.4478c-3.6071 0-6.7633 3.145-6.7633 6.7393h4.5089c0-1.3478.9017-2.2464 2.2544-2.2464s2.2544.8986 2.2544 2.2464v6.7394h4.5089v-6.7394c0-3.8189-3.1562-6.7393-6.7633-6.7393z"/>
  <path fill="#fff" d="M30.3961 49.9547c-3.6071 0-6.7633 3.1451-6.7633 6.7394h4.5089c0-1.3479.9018-2.2465 2.2544-2.2465 1.3527 0 2.2545.8986 2.2545 2.2465v11.2323h4.5088V56.6941c0-3.819-3.1562-6.7394-6.7633-6.7394zM12.361 58.9407c-3.60713 0-6.76334 3.1451-6.76334 6.7394v16.8485c0 6.7394 5.63614 12.3555 12.39944 12.3555h1.1272v-4.4929h-1.1272c-4.5089 0-7.8906-3.3697-7.8906-7.8626V65.6801c0-1.3479.9018-2.2464 2.2545-2.2464 1.3526 0 2.2544.8985 2.2544 2.2464h4.5089c0-3.819-3.1562-6.7394-6.7633-6.7394zM48.4313 58.9407c-3.6071 0-6.7633 3.1451-6.7633 6.7394h4.5088c0-1.3479.9018-2.2464 2.2545-2.2464 1.3526 0 2.2544.8985 2.2544 2.2464v16.8485c0 4.4929-3.3816 7.8626-7.8905 7.8626H41.668v4.4929h1.1272c6.7633 0 12.3994-5.6161 12.3994-12.3555V65.6801c0-3.819-3.1562-6.7394-6.7633-6.7394z"/>
  <path fill="#fff" d="M21.3776 31.9833c-3.6071 0-6.7633 3.145-6.7633 6.7394v38.1898h4.5088V38.7227c0-1.3479.9018-2.2465 2.2545-2.2465 1.3526 0 2.2544.8986 2.2544 2.2465v29.204h4.5089v-29.204c0-3.819-3.1562-6.7394-6.7633-6.7394zM30.3954 14.0115c-.6764 0-1.1273.2247-1.5782.674l-7.4396 7.4134-2.9307-2.9205c-.9018-.8985-2.2545-.8985-3.1563 0-.9018.8986-.9018 2.2468 0 3.1454l4.5089 4.4929c.9017.8986 2.2545.8986 3.1562 0l9.0178-8.9858c.9018-.8986.9018-2.2468 0-3.1454-.4509-.4493-.9018-.8987-1.5781-.674z"/>
  <path fill="#fff" d="M23.6326.532837c-.2254 0-.4509.000219-.9018.224866C13.7131 1.207 5.59708 7.04791 2.44087 16.0338c-2.930771 8.5365-1.35266 16.8483 3.38166 24.037.67633 1.1232 2.02904 1.348 3.15626.674 1.12721-.6739 1.35261-2.0221.67631-3.1453C5.37167 31.3094 4.24447 24.57 6.72436 17.3813 9.42968 9.96798 16.1931 5.02576 23.4073 5.02576h.2253c7.4397 0 13.9776 4.94222 16.6829 12.35554 2.7054 7.4133.6763 16.8486-4.9598 22.0154-.9017.8986-1.1273 2.2468-.2255 3.1454.9018.8986 2.2545 1.1229 3.1563.2243h.2254c6.9887-6.7393 9.2432-17.5221 6.087-26.7326C41.4427 6.59862 33.1013.532837 23.6326.532837z"/>
</svg>
