<?xml version="1.0" encoding="utf-8"?>
<svg viewBox="0 0 242.85 242.076" width="242.85" height="242.076" xmlns="http://www.w3.org/2000/svg">
  <path d="M 17.27 61.136 C 17.27 61.136 -17.68 145.886 62.89 162.966 C 143.46 180.046 210.81 180.896 228.89 137.776 C 246.97 94.656 255.72 49.426 218.72 23.136 C 181.72 -3.154 58.07 -24.284 17.27 61.136 Z" fill="#24285b"/>
  <path d="M 126.69 129.136 C 126.69 129.136 138.95 125.656 144.88 130.876 C 150.81 136.096 142.79 147.496 142.79 147.496 Z" fill="#24285b"/>
  <path d="M 62.89 172.816 C 62.89 172.816 124.56 116.206 186.54 146.886 C 186.54 146.886 181.17 204.756 78.7 211.716 C 78.7 211.716 65.42 203.806 62.89 172.816 Z" fill="#e6e6e6"/>
  <polygon points="114.62 57.096 114.77 72.796 123.37 72.096 119.81 60.946 114.62 57.096" fill="#f4a28c"/>
  <path d="M 120.69 63.356 C 119.596 63.264 118.553 62.854 117.69 62.176 C 117.69 62.176 118.29 64.986 121.85 67.256 Z" fill="#ce8172" opacity="0.31"/>
  <path d="M 132.79 79.016 C 133.494 74.888 138.403 73.07 141.626 75.744 C 141.631 75.748 141.635 75.752 141.64 75.756 C 145.529 79.132 148.573 83.372 150.53 88.136 C 156.22 101.536 158.47 106.876 164.64 104.506 C 170.81 102.136 183.02 85.286 183.02 85.286 L 187.77 88.846 C 187.77 88.846 179.23 111.556 165.35 116.536 C 152.3 121.256 126.06 116.976 132.79 79.016 Z" fill="#2CAEE4"/>
  <path d="M 132.79 79.016 C 133.494 74.888 138.403 73.07 141.626 75.744 C 141.631 75.748 141.635 75.752 141.64 75.756 C 145.529 79.132 148.573 83.372 150.53 88.136 C 156.22 101.536 158.47 106.876 164.64 104.506 C 170.81 102.136 183.02 85.286 183.02 85.286 L 187.77 88.846 C 187.77 88.846 179.23 111.556 165.35 116.536 C 152.3 121.256 126.06 116.976 132.79 79.016 Z" opacity="0.08"/>
  <path d="M 123.14 55.036 C 123.653 57.649 123.815 60.32 123.62 62.976 C 123.42 64.274 122.209 65.167 120.91 64.976 C 118.831 64.804 117.048 63.425 116.36 61.456 L 114.49 57.456 C 113.892 55.733 114.44 53.82 115.86 52.676 C 118.32 50.496 122.72 52.136 123.14 55.036 Z" fill="#f4a28c"/>
  <path d="M 121.99 55.366 C 120.531 55.584 119.051 55.634 117.58 55.516 C 118.589 56.742 118.778 58.449 118.06 59.866 C 117.39 61.265 115.818 61.988 114.32 61.586 L 113.72 55.466 C 113.496 53.682 114.263 51.919 115.72 50.866 C 116.337 50.419 116.981 50.011 117.65 49.646 C 119.32 48.746 122.02 49.646 123.46 48.266 C 124.096 47.68 125.127 47.98 125.35 48.816 C 125.83 50.656 125.82 53.616 123.43 54.916 C 122.978 55.143 122.491 55.295 121.99 55.366 Z" fill="#ffd200"/>
  <path d="M 118.55 59.676 C 118.55 59.676 118.32 57.846 116.96 58.136 C 115.6 58.426 115.96 61.076 117.82 61.136 Z" fill="#f4a28c"/>
  <path d="M 123.57 58.026 L 125.1 59.716 C 125.475 60.135 125.288 60.802 124.75 60.966 L 122.98 61.506 Z" fill="#f4a28c"/>
  <path d="M 111.55 69.926 L 121.62 69.136 C 121.62 69.136 142.45 69.136 146.34 83.306 C 150.23 97.476 133.56 132.726 133.56 132.726 L 96.64 134.106 C 96.64 134.106 93.64 115.236 94.44 98.296 C 95.24 81.356 95.92 72.946 111.55 69.926 Z" fill="#2CAEE4"/>
  <path d="M 123.37 85.806 C 123.37 85.806 121.83 100.806 112.22 103.806 C 102.61 106.806 102.22 126.276 110.32 133.596 L 96.64 134.106 C 94.651 121.47 93.954 108.663 94.56 95.886 C 95.79 76.496 123.37 85.806 123.37 85.806 Z" opacity="0.08"/>
  <path d="M 122.57 88.066 C 126.98 78.636 118.29 68.316 108.17 70.776 C 95.82 73.776 77.96 79.886 72.9 90.906 C 64.9 108.266 58.43 124.096 58.43 124.096 L 66.91 127.306 C 66.91 127.306 84.65 90.246 103.76 95.306 C 113.45 97.846 119.79 94.036 122.57 88.066 Z" fill="#2CAEE4"/>
  <path d="M 99.89 149.066 C 99.89 149.066 105.89 156.066 120.61 153.836 L 107.25 166.936 C 105.653 168.494 105.131 170.849 105.92 172.936 L 107.14 176.196 C 108.06 178.685 110.989 179.759 113.3 178.456 C 122.01 173.556 140.95 160.576 147.05 137.796 C 147.05 137.796 141.63 137.886 137.84 138.206 C 134.05 138.526 106.68 144.756 99.89 149.066 Z" opacity="0.08"/>
  <path d="M 122.57 88.066 C 126.98 78.636 118.29 68.316 108.17 70.776 C 95.82 73.776 77.96 79.886 72.9 90.906 C 64.9 108.266 58.43 124.096 58.43 124.096 L 66.91 127.306 C 66.91 127.306 84.65 90.246 103.76 95.306 C 113.45 97.846 119.79 94.036 122.57 88.066 Z" fill="#fff" opacity="0.44"/>
  <path d="M 96.64 134.076 C 96.64 134.076 127.44 123.336 136.93 132.986 C 146.42 142.636 114.62 166.036 114.62 166.036 L 110.52 161.136 L 122.98 145.316 C 122.98 145.316 94.62 153.046 96.64 134.076 Z" fill="#24285b"/>
  <path d="M 91.09 153.456 L 68.5 147.456 L 30.31 162.336 L 62.89 172.776 C 62.89 172.776 84.26 158.536 91.09 153.456 Z" fill="#c7c9c9"/>
  <path d="M 114.46 206.536 L 105.79 227.486 L 66.59 242.076 L 78.69 211.716 C 78.69 211.716 102.94 209.696 114.46 206.536 Z" fill="#c7c9c9"/>
  <path d="M 111.63 162.456 L 108.63 162.686 C 107.559 162.774 106.841 163.826 107.15 164.856 L 109.15 171.506 C 109.448 172.477 110.686 172.761 111.378 172.017 C 111.497 171.89 111.59 171.74 111.65 171.576 L 113.97 165.206 Z" fill="#2CAEE4"/>
  <path d="M 183.86 85.946 C 183.86 85.946 187.02 79.676 190.02 79.676 C 193.02 79.676 189.02 83.566 189.02 83.566 C 189.02 83.566 193.02 87.326 187.72 88.876 Z" fill="#f4a28c"/>
  <path d="M 60.7 124.956 C 60.7 124.956 54.06 134.086 60.7 134.076 C 67.34 134.066 66.91 127.306 66.91 127.306 Z" fill="#f4a28c"/>
  <path d="M 64.34 183.636 L 30.2 185.636 L 42.14 193.136 L 0 214.626 L 54.08 211.716 L 49.97 226.716 L 75.06 208.386 C 75.06 208.386 65.49 191.296 64.34 183.636 Z" fill="#e6e6e6" opacity="0.3"/>
  <circle cx="85.39" cy="45.476" r="3.19" fill="#ffd200"/>
  <circle cx="162.16" cy="13.626" r="2.31" fill="#fff"/>
  <circle cx="198.64" cy="120.236" r="1.48" fill="#fff"/>
  <circle cx="17.96" cy="94.096" r="1.48" fill="#fff"/>
  <circle cx="108.1" cy="14.676" r="1.48" fill="#fff"/>
  <circle cx="75.86" cy="138.676" r="1.48" fill="#fff"/>
  <circle cx="39.6" cy="137.066" r="0.48" fill="#fff"/>
  <circle cx="61.04" cy="29.486" r="0.48" fill="#fff"/>
  <circle cx="144.58" cy="35.886" r="0.48" fill="#fff"/>
  <circle cx="88.28" cy="116.026" r="0.48" fill="#fff"/>
  <circle cx="167.94" cy="74.136" r="0.48" fill="#fff"/>
  <circle cx="51.44" cy="86.626" r="0.48" fill="#fff"/>
  <circle cx="227.34" cy="86.296" r="0.48" fill="#fff"/>
  <circle cx="216.79" cy="27.026" r="0.48" fill="#fff"/>
  <circle cx="195.51" cy="151.776" r="0.48" fill="#fff"/>
  <circle cx="156.19" cy="128.626" r="0.48" fill="#fff"/>
  <circle cx="197.58" cy="48.666" r="23.01" fill="#ffd200"/>
  <path d="M 176.21 40.136 C 176.21 40.136 162.09 40.376 161.15 49.736 C 160.21 59.096 204.51 66.416 220.6 64.526 C 236.69 62.636 238.02 54.156 220.6 46.826 C 220.6 46.826 221.99 55.736 210.01 55.026 C 195.92 54.136 170.26 53.036 176.21 40.136 Z" fill="#ffd200"/>
  <path d="M 176.21 40.136 C 176.21 40.136 162.09 40.376 161.15 49.736 C 160.21 59.096 204.51 66.416 220.6 64.526 C 236.69 62.636 238.02 54.156 220.6 46.826 C 220.6 46.826 221.99 55.736 210.01 55.026 C 195.92 54.136 170.26 53.036 176.21 40.136 Z" fill="#fff" opacity="0.44"/>
  <ellipse cx="193.49" cy="32.386" rx="5.08" ry="3.84" opacity="0.08"/>
  <ellipse cx="281.26" cy="59.3" rx="2.68" ry="3.54" transform="matrix(0.588491, -0.808504, 0.808504, 0.588491, -8.419942, 225.935776)" opacity="0.08"/>
  <ellipse cx="199.83" cy="39.476" rx="2.68" ry="2.03" opacity="0.08"/>
  <circle cx="227.68" cy="131.206" r="15.17" fill="#2CAEE4"/>
  <ellipse cx="310.36" cy="151.69" rx="3.13" ry="4.13" transform="matrix(0.588491, -0.808504, 0.808504, 0.588491, -71.139915, 287.485779)" opacity="0.08"/>
  <ellipse cx="224.56" cy="123.466" rx="3.12" ry="2.36" opacity="0.08"/>
  <circle cx="32.99" cy="59.716" r="18.79" fill="#2CAEE4"/>
  <ellipse cx="110.37" cy="75.23" rx="5.11" ry="3.87" transform="matrix(0.990748, -0.135716, 0.135716, 0.990748, -85.399986, -10.184144)" opacity="0.08"/>
  <ellipse cx="99.78" cy="81.36" rx="3.87" ry="2.93" transform="matrix(0.721035, -0.692899, 0.692899, 0.721035, -104.749969, 65.955849)" opacity="0.08"/>
</svg>