<svg xmlns="http://www.w3.org/2000/svg" fill="none" viewBox="0 0 60 72">
  <defs/>
  <g fill="#fff" clip-path="url(#clip0)">
    <path d="M49.2149 2.85802v5.93587h2.8712V0h-8.0246v2.85802h5.1534zM10.7852 2.85802h5.1534V0H7.91406v8.79389h2.87114V2.85802zM10.7852 39.316v-5.6061H7.91406v8.4642h8.02454V39.316h-5.1534zM49.2149 39.316h-5.1534v2.8581h8.0246v-8.4642h-2.8712v5.6061z"/>
    <path d="M52.0491 48.5496c-8.6135-1.9786-16.6012-3.7007-12.7362-10.9923 11.816-22.168 3.1657-34.0031-9.3128-34.0031-12.6994 0-21.16568 12.3115-9.3129 34.0031 4.0122 7.3282-4.3068 9.0503-12.73622 10.9923C-.662516 50.5282.00006038 49.3924.00006038 57.6H60.0001c0-8.2076.6625-7.0718-7.951-9.0504z"/>
  </g>
  <defs>
    <clipPath id="clip0">
      <path fill="#fff" d="M0 0h60v72H0z"/>
    </clipPath>
  </defs>
</svg>
