<svg xmlns="http://www.w3.org/2000/svg" fill="none" viewBox="0 0 33 32">
  <defs/>
  <circle cx="16.5001" cy="15.7618" r="15.7618" fill="#3A3A3A"/>
  <g clip-path="url(#clip0)">
    <path fill="#fff" d="M20.1 7.69031c.8245.03791 1.3945.15908 1.9212.36352.4994.18671.9514.48117 1.3241.86243.3813.37266.6757.82475.8624 1.32414.2045.5273.3256 1.0966.3636 1.9212.0467 1.0222.0521 1.3823.0521 3.6s-.0054 2.5778-.0521 3.6c-.038.8245-.1591 1.3945-.3636 1.9219-.1868.4991-.4812.9509-.8624 1.3234-.3726.3813-.8247.6757-1.3241.8624-.5274.2045-1.0967.3256-1.9212.3635-1.0222.0468-1.3817.0522-3.6.0522-2.2184 0-2.5785-.0054-3.6-.0522-.8246-.0379-1.3946-.159-1.9219-.3635-.4991-.1868-.951-.4812-1.32343-.8624-.38127-.3727-.67573-.8248-.86244-1.3241-.20443-.5274-.32561-1.0967-.36352-1.9212-.04671-1.0208-.05212-1.381-.05212-3.6 0-2.2184.00541-2.5792.05212-3.6.03791-.8246.15909-1.3946.36352-1.9212.18671-.49939.48117-.95148.86244-1.32414.37243-.38118.82433-.67563 1.32343-.86243.528-.20444 1.0973-.32561 1.9219-.36352 1.0208-.04671 1.3809-.05213 3.6-.05213 2.2183 0 2.5792.00542 3.6.05213zm-3.6 1.7533c-2.1933 0-2.5291.00474-3.5181.05009-.6276.02843-1.0039.10831-1.3499.24303-.2944.11508-.482.23693-.7013.45557-.2193.2193-.3412.4069-.4556.7013-.134.3453-.2146.7223-.243 1.3499-.0453.989-.0501 1.3248-.0501 3.5181s.0048 2.5291.0501 3.5181c.0284.6275.1083 1.0039.243 1.3491.1151.2952.237.4827.4556.702.2193.2194.4069.3412.7013.4556.3453.1341.7223.2146 1.3499.2431.9897.0453 1.3254.05 3.5181.05 2.1933 0 2.5284-.0047 3.5181-.05.6275-.0285 1.0039-.1084 1.3498-.2431.2945-.1151.482-.2369.7013-.4556.2194-.2193.3412-.4068.4556-.7013.1341-.3452.2146-.7223.2431-1.3498.0453-.9897.0501-1.3255.0501-3.5181 0-2.1927-.0048-2.5284-.0501-3.5181-.0285-.6276-.1084-1.0039-.2431-1.3492-.0957-.266-.2516-.5062-.4556-.702-.1957-.20394-.436-.35987-.702-.45557-.3452-.13404-.7223-.2146-1.3498-.24303-.989-.04535-1.3248-.05009-3.5181-.05009H16.5zm0 10.52999c-1.1171 0-2.1884-.4438-2.9783-1.2337-.7899-.7899-1.2337-1.8612-1.2337-2.9783s.4438-2.1884 1.2337-2.9783c.7899-.7899 1.8612-1.2337 2.9783-1.2337s2.1884.4438 2.9783 1.2337c.7899.7899 1.2337 1.8612 1.2337 2.9783s-.4438 2.1884-1.2337 2.9783c-.7899.7899-1.8612 1.2337-2.9783 1.2337zm0-1.8048c.6384 0 1.2507-.2536 1.7022-.7051.4514-.4514.705-1.0637.705-1.7021 0-.6385-.2536-1.2507-.705-1.7022-.4515-.4514-1.0638-.7051-1.7022-.7051-.6385 0-1.2507.2537-1.7022.7051-.4514.4515-.7051 1.0637-.7051 1.7022 0 .6384.2537 1.2507.7051 1.7021.4515.4515 1.0637.7051 1.7022.7051zm4.212-5.7168c-.2395 0-.4691-.0951-.6384-.2644-.1692-.1693-.2644-.3989-.2644-.6383 0-.2395.0952-.4691.2644-.6384.1693-.1692.3989-.2644.6384-.2644.2394 0 .469.0952.6383.2644.1693.1693.2644.3989.2644.6384 0 .2394-.0951.469-.2644.6383s-.3989.2644-.6383.2644z"/>
  </g>
  <defs>
    <clipPath id="clip0">
      <path fill="#fff" d="M0 0h16.2468v16.2468H0z" transform="translate(8.37659 7.63818)"/>
    </clipPath>
  </defs>
</svg>
