<svg xmlns="http://www.w3.org/2000/svg" fill="none" viewBox="0 0 32 32">
  <defs/>
  <circle cx="15.7618" cy="15.7618" r="15.7618" fill="#3A3A3A"/>
  <path fill="#fff" d="M23.157 12.734c.0078.1625.0107.327.0107.4895C23.1677 18.2295 19.4533 24 12.6612 24 10.5746 24 8.63467 23.373 7 22.2976c.96689.1199 1.94734.0432 2.88532-.2257.93798-.2689 1.81508-.7247 2.58118-1.3414-.7704-.0149-1.5171-.2764-2.1355-.7478-.61849-.4714-1.07783-1.1293-1.31383-1.8816.55376.1062 1.12363.0839 1.66793-.0652-.83581-.1738-1.58732-.6386-2.12717-1.3156-.53986-.6771-.83485-1.5247-.835-2.3993v-.0471c.51281.2925 1.08633.4552 1.67283.4745-.78273-.5351-1.33682-1.3564-1.54916-2.2962-.21234-.9399-.06693-1.9274.40655-2.76098.92719 1.17018 2.08405 2.12728 3.39545 2.80918 1.3114.6818 2.7479 1.0731 4.2164 1.1485-.0635-.2833-.0954-.5731-.0949-.8638 0-.4971.0955-.9894.2811-1.4487.1855-.4593.4575-.8766.8003-1.2281.3429-.35151.7499-.6303 1.1978-.82046.4479-.19016.928-.28797 1.4128-.28783.5052-.00085 1.0052.10477 1.469.3103.4638.20554.8814.5066 1.2271.88449.8267-.1678 1.6196-.47855 2.3448-.91891-.2758.87701-.8529 1.62141-1.6239 2.09471.732-.089 1.4469-.2899 2.1209-.5959-.4951.7609-1.1194 1.4245-1.843 1.9593z"/>
</svg>
