<svg xmlns="http://www.w3.org/2000/svg" fill="none" viewBox="0 0 464 109">
  <defs/>
  <path fill="#fff" d="M130.655 25.1094h5.875l22.766 26.1621 22.674-26.1621h5.875V89h-9.18V40.3477l-2.708 3.6718-16.661 19.4151-16.661-19.3692-2.8-3.6718V89h-9.18V25.1094zm65.226 75.6406c.826.245 1.943.367 3.35.367 1.438 0 2.907-.291 4.406-.872 1.5-.5507 2.8-1.3309 3.902-2.3407 1.836-1.6523 3.503-4.2533 5.003-7.8027l-19.461-48.4688h9.776l13.678 37.7285 12.255-37.7285h9.684l-19.461 53.1963c-1.468 3.9779-3.503 7.0229-6.104 9.1339-3.427 2.754-8.002 4.131-13.724 4.131-.52 0-1.055-.031-1.606-.092l-1.698-.184v-7.068zm47.279-80.0469h9.179v50.3506c0 6.0586 1.377 9.6234 4.131 10.6943.918.3672 1.897.5508 2.938.5508 1.04 0 1.973-.1224 2.8-.3672V89l-1.699.1836c-.55.0612-1.086.0918-1.606.0918-5.875 0-10.113-1.9277-12.714-5.7832-2.02-3.0293-3.029-7.1602-3.029-12.3926V20.7031zm27.772 59.8516c-1.01-1.7442-1.821-3.7943-2.433-6.1504-.581-2.3561-.872-5.4313-.872-9.2256s.811-7.2825 2.433-10.4648c1.652-3.2129 3.794-5.8444 6.426-7.8946 5.11-3.9472 11.459-5.9209 19.047-5.9209 3.948 0 6.931.0918 8.951.2754l4.452.459V89h-8.262l-.367-5.4619c-1.836 2.4479-4.636 4.2685-8.399 5.4619-1.439.459-2.923.6885-4.453.6885-1.499 0-2.983-.153-4.452-.459-1.469-.306-2.937-.8109-4.406-1.5147-1.438-.7037-2.815-1.637-4.131-2.7998-1.316-1.1933-2.494-2.6468-3.534-4.3603zm28.824-32.1748c-1.958-.2448-3.917-.3672-5.875-.3672-1.928 0-3.993.3519-6.196 1.0557-2.203.6731-4.085 1.7441-5.646 3.2128-3.243 3.0599-4.865 7.7263-4.865 13.9991 0 5.9362 1.392 10.3271 4.177 13.1728 2.111 2.1114 4.651 3.167 7.619 3.167 3.825 0 6.977-1.3922 9.455-4.1767.612-.7038 1.056-1.3311 1.331-1.8819V48.3799zm29.975 58.9791h-9.179V41.6328h8.262l.367 5.416c1.836-2.4479 4.651-4.2685 8.445-5.4619 1.469-.459 2.953-.6885 4.452-.6885 1.53 0 3.029.1683 4.498.5049 1.469.306 2.922.8262 4.361 1.5606 1.438.7037 2.815 1.6523 4.13 2.8457 1.316 1.1627 2.479 2.6162 3.489 4.3603 2.203 3.7637 3.304 8.43 3.304 13.999 0 8.5066-2.937 15.0088-8.812 19.5069-5.202 4.0084-11.536 6.0127-19.002 6.0127h-2.295c-.734 0-1.408-.0153-2.02-.0459v17.7164zm0-25.152c.857.2448 2.54.3672 5.049.3672 2.509 0 4.866-.3519 7.069-1.0556 2.203-.7038 4.069-1.7901 5.599-3.2588 3.244-3.1211 4.866-7.8181 4.866-14.0909 0-5.9056-1.408-10.2659-4.223-13.081-2.081-2.0807-4.621-3.1211-7.619-3.1211-3.764 0-6.885 1.3922-9.364 4.1768-.642.7037-1.101 1.331-1.377 1.8818V82.207zm43.378-1.6523c-1.01-1.7442-1.82-3.7943-2.432-6.1504-.582-2.3561-.873-5.4313-.873-9.2256s.811-7.2825 2.433-10.4648c1.652-3.2129 3.794-5.8444 6.426-7.8946 5.11-3.9472 11.459-5.9209 19.048-5.9209 3.947 0 6.93.0918 8.95.2754l4.452.459V89h-8.262l-.367-5.4619c-1.836 2.4479-4.636 4.2685-8.399 5.4619-1.438.459-2.922.6885-4.452.6885-1.5 0-2.984-.153-4.453-.459-1.468-.306-2.937-.8109-4.406-1.5147-1.438-.7037-2.815-1.637-4.131-2.7998-1.315-1.1933-2.493-2.6468-3.534-4.3603zm28.824-32.1748c-1.958-.2448-3.916-.3672-5.875-.3672-1.927 0-3.993.3519-6.196 1.0557-2.203.6731-4.085 1.7441-5.645 3.2128-3.244 3.0599-4.866 7.7263-4.866 13.9991 0 5.9362 1.393 10.3271 4.177 13.1728 2.111 2.1114 4.651 3.167 7.619 3.167 3.825 0 6.977-1.3922 9.455-4.1767.612-.7038 1.056-1.3311 1.331-1.8819V48.3799zm18.134 52.3701c.826.245 1.943.367 3.351.367 1.438 0 2.906-.291 4.406-.872 1.499-.5507 2.8-1.3309 3.901-2.3407 1.836-1.6523 3.504-4.2533 5.003-7.8027l-19.461-48.4688h9.777l13.677 37.7285 12.255-37.7285h9.685L443.2 94.8291c-1.469 3.9779-3.504 7.0229-6.105 9.1339-3.427 2.754-8.001 4.131-13.723 4.131-.521 0-1.056-.031-1.607-.092l-1.698-.184v-7.068z"/>
  <path fill="#fff" d="M130.655 25.1094v-.5h-.5v.5h.5zm5.875 0l.377-.3282-.149-.1718h-.228v.5zm22.766 26.1621l-.377.3282.378.4343.377-.4351-.378-.3274zm22.674-26.1621v-.5h-.229l-.149.1725.378.3275zm5.875 0h.5v-.5h-.5v.5zm0 63.8906v.5h.5V89h-.5zm-9.18 0h-.5v.5h.5V89zm0-48.6523h.5v-1.5204l-.902 1.2236.402.2968zm-2.708 3.6718l.379.3256.012-.014.011-.0148-.402-.2968zm-16.661 19.4151l-.379.326.379.4412.379-.4416-.379-.3256zm-16.661-19.3692l-.398.3032.009.0117.01.0112.379-.3261zm-2.8-3.6718l.398-.3032-.898-1.1772v1.4804h.5zm0 48.6064v.5h.5V89h-.5zm-9.18 0h-.5v.5h.5V89zm0-63.3906h5.875v-1h-5.875v1zm5.498-.1718l22.766 26.1621.754-.6564-22.766-26.1621-.754.6564zm23.521 26.1613l22.674-26.1621-.756-.6549-22.674 26.1621.756.6549zm22.296-25.9895h5.875v-1h-5.875v1zm5.375-.5V89h1V25.1094h-1zm.5 63.3906h-9.18v1h9.18v-1zm-8.68.5V40.3477h-1V89h1zm-.902-48.9491l-2.708 3.6719.804.5935 2.708-3.6719-.804-.5935zm-2.685 3.643L158.916 63.109l.759.6512 16.661-19.4151-.758-.6512zm-15.903 19.4146l-16.661-19.3691-.758.6521 16.661 19.3691.758-.6521zm-16.643-19.3462l-2.799-3.6719-.796.6063 2.8 3.6719.795-.6063zm-3.697-3.3687V89h1V40.3936h-1zm.5 48.1064h-9.18v1h9.18v-1zm-8.68.5V25.1094h-1V89h1zm64.726 11.75l.142-.479-.642-.191v.67h.5zm7.756-.505l-.172-.4693-.008.0032.18.4661zm3.902-2.3407l-.335-.3717-.003.0031.338.3686zm5.003-7.8027l.46.1945.08-.1897-.076-.1911-.464.1863zm-19.461-48.4688v-.5h-.74l.276.6863.464-.1863zm9.776 0l.47-.1704-.119-.3296h-.351v.5zm13.678 37.7285l-.47.1704.496 1.3682.449-1.3841-.475-.1545zm12.255-37.7285v-.5h-.364l-.112.3455.476.1545zm9.684 0l.47.1718.246-.6718h-.716v.5zm-19.461 53.1963l.469.1732.001-.0014-.47-.1718zm-6.104 9.1339l.313.39.002-.002-.315-.388zm-15.33 4.039l.055-.497h-.001l-.054.497zm-1.698-.184h-.5v.449l.446.048.054-.497zm-.142-6.589c.892.265 2.063.388 3.492.388v-1c-1.386 0-2.448-.121-3.208-.346l-.284.958zm3.492.388c1.507 0 3.037-.305 4.587-.906l-.361-.9321c-1.449.5621-2.856.8381-4.226.8381v1zm4.579-.903c1.556-.571 2.914-1.3843 4.067-2.4411l-.676-.7372c-1.05.9628-2.294 1.7102-3.736 2.2401l.345.9382zm4.063-2.4381c1.913-1.7212 3.616-4.3967 5.129-7.9798l-.921-.3891c-1.485 3.5159-3.117 6.0422-4.877 7.6256l.669.7433zm5.133-8.3606l-19.461-48.4688-.928.3726 19.461 48.4688.928-.3726zm-19.925-47.7825h9.776v-1h-9.776v1zm9.306-.3296l13.678 37.7285.94-.3408-13.678-37.7285-.94.3408zm14.623 37.7126l12.255-37.7285-.951-.309-12.255 37.7286.951.3089zm11.78-37.383h9.684v-1h-9.684v1zm9.215-.6718l-19.461 53.1963.939.3436 19.461-53.1963-.939-.3436zm-19.461 53.1949c-1.445 3.9158-3.435 6.8771-5.95 8.9191l.63.776c2.687-2.181 4.767-5.3087 6.258-9.3487l-.938-.3464zm-5.948 8.9171c-3.315 2.664-7.768 4.021-13.411 4.021v1c5.802 0 10.498-1.397 14.037-4.241l-.626-.78zm-13.411 4.021c-.5 0-1.017-.03-1.551-.089l-.11.994c.568.063 1.122.095 1.661.095v-1zm-1.552-.089l-1.699-.184-.107.994 1.698.184.108-.994zm-1.252.313v-7.068h-1v7.068h1zm46.779-87.1149v-.5h-.5v.5h.5zm9.179 0h.5v-.5h-.5v.5zm4.131 61.0449l.186-.4642-.005-.0018-.181.466zm5.738.1836h.5v-.6696l-.643.1902.143.4794zm0 7.0684l.053.4971.447-.0482V89h-.5zm-1.699.1836l-.053-.4971-.002.0002.055.4969zm-14.32-5.6914l-.416.2773.001.0023.415-.2796zm-3.029-62.2891h9.179v-1h-9.179v1zm8.679-.5v50.3506h1V20.7031h-1zm0 50.3506c0 3.0591.347 5.5342 1.067 7.3977.723 1.8728 1.839 3.1623 3.383 3.7626l.362-.932c-1.21-.4706-2.159-1.4989-2.812-3.1909-.658-1.7013-1-4.0379-1-7.0374h-1zm4.446 11.1586c.98.392 2.022.5865 3.123.5865v-1c-.98 0-1.896-.1726-2.752-.515l-.371.9285zm3.123.5865c1.079 0 2.061-.1268 2.942-.3878l-.285-.9588c-.771.2287-1.655.3466-2.657.3466v1zm2.3-.8672V89h1v-7.0684h-1zm.446 6.5713l-1.698.1836.107.9942 1.698-.1836-.107-.9942zm-1.7.1838c-.534.0592-1.051.0887-1.551.0887v1c.54 0 1.094-.0318 1.662-.0949l-.111-.9938zm-1.551.0887c-5.758 0-9.816-1.8815-12.3-5.5628l-.829.5592c2.719 4.0297 7.137 6.0036 13.129 6.0036v-1zm-12.298-5.5606c-1.946-2.9185-2.945-6.9403-2.945-12.1152h-1c0 5.29 1.02 9.5299 3.113 12.6699l.832-.5547zm-2.945-12.1152V20.7031h-1v50.3965h1zm27.272 9.4551l-.433.2506.006.0089.427-.2595zm-2.433-6.1504l-.485.1198.001.0059.484-.1257zm1.561-19.6904l-.445-.2287-.001.0016.446.2271zm6.426-7.8946l-.306-.3957-.002.0013.308.3944zm27.998-5.6455l.051-.4974-.006-.0005-.045.4979zm4.452.459h.5v-.4511l-.449-.0463-.051.4974zm0 47.3672v.5h.5V89h-.5zm-8.262 0l-.499.0335.032.4665h.467V89zm-.367-5.4619l.499-.0336-.091-1.3444-.808 1.078.4.3zM291.908 89l-.152-.4766-.001.0003.153.4763zm-13.311-1.2852l-.22.4492.004.0018.216-.451zm-4.131-2.7998l-.336.3704.005.0043.331-.3747zm25.29-36.5351h.5v-.4414l-.438-.0548-.062.4962zm-12.071.6885l.146.4782.006-.002-.152-.4762zm-5.646 3.2128l-.342-.3641-.001.0005.343.3636zm-.688 27.1719l-.358.3497.004.0039.354-.3536zm17.074-1.0097l.374.3324.003-.0044-.377-.328zm1.331-1.8819l.447.2236.053-.1055v-.1181h-.5zm-28.391 3.7427c-.983-1.698-1.779-3.7045-2.382-6.0256l-.968.2514c.621 2.3911 1.448 4.4849 2.484 6.2752l.866-.501zm-2.38-6.0197c-.568-2.3014-.858-5.332-.858-9.1058h-1c0 3.8147.292 6.9346.887 9.3454l.971-.2396zm-.858-9.1058c0-3.7204.795-7.1302 2.378-10.2378l-.891-.4541c-1.659 3.257-2.487 6.8238-2.487 10.6919h1zm2.377-10.2362c1.622-3.1537 3.719-5.7268 6.289-7.7287l-.615-.7889c-2.693 2.0984-4.88 4.7883-6.563 8.0603l.889.4573zm6.287-7.7275c5.008-3.8683 11.244-5.8166 18.742-5.8166v-1c-7.679 0-14.141 1.999-19.353 6.0252l.611.7914zm18.742-5.8166c3.944 0 6.909.0919 8.905.2734l.091-.9959c-2.043-.1857-5.044-.2775-8.996-.2775v1zm8.951-.2246l-.052.4974h.001v.0001h.001v.0001h.001c0 .0001.001.0002.002.0002.001.0002.003.0004.005.0006l.008.0008.022.0022c.027.0028 0 .0001.03.0032l.004.0004.005.0005c.001.0001.008.0008.009.001l.01.001c.003.0002.004.0003.006.0005l.005.0006c.045.0046 0 0 .048.0049.041.0042.013.0013.056.0059.031.0031.001 0 .032.0032.021.0022.011.0012.034.0035l.004.0004c.001.0002.003.0003.004.0005.006.0006.004.0003.009.0009l.009.0009.005.0005c.001.0002.003.0003.005.0005.021.0022.015.0016.038.0039.01.001.069.0072.082.0085.045.0047-.001-.0001.045.0046.044.0046.001.0002.046.0048l.025.0025c.019.002.005.0005.024.0026.002.0002.005.0004.007.0006.002.0002.004.0004.006.0007l.013.0013c.011.0011.014.0015.025.0026.1.0103.116.0119.227.0233l.03.0032.032.0032c.003.0004.011.0013.015.0017.003.0002.006.0005.008.0008.003.0003.006.0005.008.0008.036.0037-.003-.0004.033.0033.024.0026.041.0043.066.0069.049.005-.015-.0016.034.0035.022.0022.012.0012.034.0035l.009.0009.009.0009.009.0009c.003.0003.006.0006.008.001l.009.0009.009.0009.009.0009.009.0009c.019.0019.054.0055.073.0075.021.0022.015.0016.037.0039.02.002.018.0018.038.0039l.019.0019c.003.0004.006.0007.01.001.003.0003.006.0007.009.001.027.0028.012.0012.039.004.068.007.251.0259.331.0341.045.0046-.002-.0002.043.0045l.011.0011c.004.0004.008.0008.011.0012.004.0003.008.0007.011.0011l.012.0012c.019.0019.003.0003.022.0023.028.0028-.006-.0006.022.0023.052.0053-.006-.0007.046.0047.002.0002.089.0092.092.0095.054.0055-.007-.0007.047.0048.045.0047.002.0003.048.0049.005.0005.019.002.024.0025.021.0022.002.0002.024.0025l.012.0012c.004.0005.008.0009.012.0013.008.0008.017.0017.024.0025.003.0003.096.0099.099.0102.005.0004.009.0009.013.0013.004.0004.008.0009.012.0013l.026.0026c.048.0049.002.0002.05.0052.012.0012.015.0015.026.0027.017.0018.008.0008.026.0026.004.0005.008.0009.013.0014l.013.0013c.011.0011.014.0015.026.0027.043.0045.008.0009.052.0054l.027.0027c.044.0046-.018-.0018.026.0027.005.0005.009.001.013.0014l.014.0014c.015.0015.012.0012.027.0028.045.0046.009.0009.054.0055.021.0022.006.0007.027.0028.039.0041-.012-.0012.027.0029.005.0004.01.0009.014.0014l.014.0014c.021.0022.006.0006.028.0029.046.0047.009.0009.055.0057.025.0026.003.0003.028.0029.038.0038-.009-.001.029.0029.004.0005.009.001.014.0015l.014.0014c.025.0026.003.0003.028.0029.041.0043.016.0017.058.006.025.0026.003.0003.029.0029.035.0037-.007-.0006.029.003.004.0005.009.001.014.0015l.015.0015c.029.0031 0 0 .029.003.108.0112.128.0133.239.0247l.031.0031c.033.0035-.003-.0003.03.0032.005.0005.01.0011.016.0016.005.0005.01.001.015.0016.034.0035-.004-.0004.031.0032.023.0024.039.004.062.0064.035.0036-.003-.0004.031.0032.035.0036-.003-.0003.032.0033l.016.0016c.005.0005.01.0011.015.0016.036.0037-.003-.0004.032.0033.024.0024.04.0041.064.0066.036.0037-.004-.0004.032.0033.032.0032.001 0 .032.0033l.017.0017c.005.0005.01.0011.016.0016.04.0042-.008-.0007.032.0034.12.0124.143.0147.266.0273.049.0051-.016-.0016.033.0035.022.0022.013.0013.034.0035.006.0006.012.0012.017.0018.006.0006.012.0011.017.0017.006.0006.012.0012.017.0018.006.0006.012.0012.018.0017.025.0027.042.0045.068.0071l.018.0018c.005.0006.011.0012.017.0018.022.0023.012.0013.035.0036l.102-.9948c-.088-.0091-.188-.0194-.274-.0282-.005-.0006-.011-.0011-.017-.0017-.005-.0006-.011-.0012-.016-.0018-.006-.0005-.012-.0011-.017-.0017l-.017-.0017c-.025-.0026-.042-.0043-.067-.0069-.055-.0057-.076-.0078-.131-.0135-.118-.0122-.142-.0146-.257-.0265-.08-.0082-.17-.0176-.247-.0255-.005-.0005-.117-.0121-.121-.0125-.037-.0038-.082-.0085-.119-.0122-.041-.0043-.016-.0017-.058-.006-.005-.0005-.01-.001-.014-.0015l-.015-.0015c-.005-.0005-.01-.001-.014-.0015l-.015-.0015c-.005-.0005-.009-.001-.014-.0015-.005-.0004-.01-.0009-.015-.0014-.004-.0005-.009-.001-.014-.0015-.005-.0005-.009-.001-.014-.0015-.047-.0048-.01-.001-.057-.0058-.072-.0074-.153-.0158-.222-.0229-.004-.0005-.009-.0009-.013-.0014l-.014-.0014c-.004-.0005-.009-.0009-.013-.0014-.005-.0004-.009-.0009-.014-.0014-.044-.0046-.009-.0009-.053-.0055-.021-.0021-.086-.0088-.106-.0109-.049-.005-.003-.0003-.052-.0053-.004-.0005-.008-.0009-.013-.0013-.004-.0005-.008-.0009-.012-.0014-.005-.0004-.009-.0008-.013-.0013l-.013-.0013c-.004-.0004-.008-.0009-.013-.0013-.004-.0005-.008-.0009-.012-.0013l-.013-.0013c-.004-.0005-.009-.0009-.013-.0013-.047-.0049-.003-.0003-.05-.0052-.064-.0066-.135-.0139-.196-.0202-.102-.0106-.087-.009-.187-.0193-.014-.0014-.077-.0079-.09-.0093-.002-.0002-.042-.0043-.044-.0045-.004-.0004-.008-.0008-.011-.0012-.004-.0003-.007-.0007-.011-.0011-.001-.0001-.021-.0022-.022-.0022-.055-.0057-.117-.0121-.169-.0175-.07-.0072-.095-.0097-.161-.0166-.075-.0077-.233-.0239-.296-.0305-.089-.0091-.184-.019-.261-.0269-.005-.0005-.115-.0118-.117-.0121-.035-.0036-.077-.0079-.109-.0112-.11-.0113-.284-.0293-.348-.0358-.058-.0061-.074-.0077-.122-.0126-.037-.0039-.06-.0063-.086-.009-.016-.0016-.048-.0049-.053-.0053 0-.0001-.003-.0004-.004-.0005l-.002-.0002-.001-.0001-.003-.0003-.002-.0002c0-.0001 0 0-.001-.0001l-.003-.0003v-.0001h-.001l-.051.4973zm3.952.459V89h1V41.6328h-1zm.5 46.8672h-8.262v1h8.262v-1zm-7.763.4665l-.367-5.462-.998.0671.367 5.4619.998-.067zm-1.266-5.7284c-1.758 2.3432-4.457 4.1143-8.151 5.2853l.303.9532c3.834-1.2157 6.733-3.0859 8.648-5.6385l-.8-.6zm-8.152 5.2856c-1.388.4431-2.821.6648-4.3.6648v1c1.581 0 3.117-.2373 4.605-.7122l-.305-.9526zm-4.3.6648c-1.465 0-2.915-.1495-4.35-.4485l-.204.979c1.502.313 3.021.4695 4.554.4695v-1zm-4.35-.4485c-1.426-.2971-2.856-.7882-4.292-1.4761l-.432.9019c1.502.7197 3.009 1.2383 4.52 1.5532l.204-.979zm-4.288-1.4743c-1.394-.6822-2.734-1.5894-4.02-2.7253l-.662.7493c1.346 1.1896 2.76 2.149 4.242 2.8743l.44-.8983zm-4.015-2.721c-1.276-1.1572-2.424-2.5719-3.443-4.2495l-.854.519c1.062 1.7495 2.27 3.2416 3.625 4.4712l.672-.7407zm25.016-36.661c-1.979-.2473-3.958-.371-5.937-.371v1c1.938 0 3.875.1211 5.813.3633l.124-.9923zm-5.937-.371c-1.988 0-4.105.3629-6.348 1.0794l.304.9525c2.163-.6911 4.177-1.0319 6.044-1.0319v-1zm-6.342 1.0775c-2.271.6939-4.222 1.8017-5.842 3.327l.685.7281c1.501-1.4122 3.314-2.4463 5.449-3.0988l-.292-.9563zm-5.843 3.3274c-3.379 3.1875-5.022 8.0095-5.022 14.3627h1c0-6.1924 1.6-10.7031 4.708-13.6354l-.686-.7273zm-5.022 14.3627c0 6.0035 1.407 10.5462 4.319 13.5225l.715-.6994c-2.656-2.7151-4.034-6.9543-4.034-12.8231h-1zm4.323 13.5264c2.205 2.2044 4.871 3.3134 7.973 3.3134v-1c-2.835 0-5.247-1.0023-7.266-3.0205l-.707.7071zm7.973 3.3134c3.963 0 7.252-1.4501 9.829-4.3443l-.747-.6649c-2.381 2.6748-5.396 4.0092-9.082 4.0092v1zm9.832-4.3487c.627-.721 1.1-1.3839 1.401-1.9863l-.894-.4472c-.25.4992-.664 1.0909-1.261 1.7774l.754.6561zm1.454-2.2099V48.3799h-1v28.1816h1zm29.475 30.7975v.5h.5v-.5h-.5zm-9.179 0h-.5v.5h.5v-.5zm0-65.7262v-.5h-.5v.5h.5zm8.262 0l.498-.0338-.031-.4662h-.467v.5zm.367 5.416l-.499.0338.091 1.3433.808-1.0771-.4-.3zm8.445-5.4619l-.149-.4772-.001.0002.15.477zm8.95-.1836l-.111.4875.009.002.102-.4895zm4.361 1.5606l-.228.4453.008.0038.22-.4491zm4.13 2.8457l-.336.3704.005.0042.331-.3746zm3.489 4.3603l-.433.2505.001.0021.432-.2526zm-5.508 33.5059l-.304-.397-.001.0009.305.3961zm-23.317 5.9668l.025-.4994-.525-.0262v.5256h.5zm0-7.4356h-.5v.3772l.363.1036.137-.4808zm17.717-3.9472l.347.3607v-.0004l-.347-.3603zm-16.34-26.1162l.37.3371.004-.0047-.374-.3324zm-1.377 1.8818l-.447-.2236-.053.1056v.118h.5zm0 52.8336h-9.179v1h9.179v-1zm-8.679.5V41.6328h-1v65.7262h1zm-.5-65.2262h8.262v-1h-8.262v1zm7.763-.4662l.367 5.416.998-.0676-.368-5.416-.997.0676zm1.266 5.6822c1.756-2.3422 4.471-4.1136 8.195-5.2849l-.3-.954c-3.864 1.2154-6.78 3.0854-8.695 5.6389l.8.6zm8.194-5.2846c1.422-.4443 2.856-.6658 4.303-.6658v-1c-1.551 0-3.085.2376-4.601.7113l.298.9545zm4.303-.6658c1.493 0 2.955.1642 4.387.4923l.223-.9747c-1.506-.3452-3.043-.5176-4.61-.5176v1zm4.396.4944c1.422.2963 2.834.8007 4.235 1.5164l.455-.8906c-1.475-.7531-2.97-1.289-4.486-1.6048l-.204.979zm4.243 1.5202c1.391.681 2.73 1.6017 4.015 2.7669l.671-.7407c-1.346-1.2215-2.762-2.1979-4.247-2.9244l-.439.8982zm4.019 2.7712c1.27 1.1223 2.4 2.5319 3.387 4.2362l.865-.501c-1.032-1.784-2.228-3.2813-3.589-4.4845l-.663.7493zm3.388 4.2383c2.148 3.6686 3.236 8.2421 3.236 13.7464h1c0-5.6336-1.114-10.3928-3.373-14.2516l-.863.5052zm3.236 13.7464c0 8.3774-2.884 14.7214-8.616 19.1099l.608.794c6.018-4.6077 9.008-11.2681 9.008-19.9039h-1zm-8.617 19.1108c-5.103 3.932-11.325 5.9088-18.697 5.9088v1c7.561 0 14.006-2.0317 19.307-6.1167l-.61-.7921zm-18.697 5.9088h-2.295v1h2.295v-1zm-2.295 0c-.728 0-1.392-.0152-1.995-.0453l-.049.9988c.621.031 1.303.0465 2.044.0465v-1zm-2.52.4541v17.7164h1V89.6426h-1zm.363-6.9548c.934.2669 2.686.3864 5.186.3864v-1c-2.518 0-4.132-.1253-4.911-.3479l-.275.9615zm5.186.3864c2.557 0 4.965-.3586 7.221-1.0794l-.304-.9525c-2.15.6868-4.455 1.0319-6.917 1.0319v1zm7.221-1.0794c2.269-.7248 4.204-1.8481 5.794-3.3743l-.693-.7214c-1.47 1.4112-3.268 2.4605-5.405 3.1432l.304.9525zm5.794-3.3747c3.375-3.2476 5.019-8.0971 5.019-14.4512h-1c0 6.1916-1.6 10.7359-4.712 13.7306l.693.7206zm5.019-14.4512c0-5.9745-1.424-10.4887-4.37-13.4346l-.707.7071c2.685 2.6844 4.077 6.8909 4.077 12.7275h1zm-4.37-13.4346c-2.176-2.1764-4.844-3.2675-7.972-3.2675v1c2.869 0 5.28.9897 7.265 2.9746l.707-.7071zm-7.972-3.2675c-3.905 0-7.163 1.4521-9.737 4.3443l.747.6649c2.383-2.6768 5.367-4.0092 8.99-4.0092v-1zm-9.733 4.3396c-.658.7214-1.151 1.3873-1.455 1.9954l.895.4472c.246-.4935.672-1.0822 1.299-1.7683l-.739-.6743zm-1.508 2.219V82.207h1V54.0254h-1zm43.878 26.5293l-.433.2506.006.0089.427-.2595zm-2.432-6.1504l-.486.1198.002.0059.484-.1257zm1.56-19.6904l-.445-.2287v.0016l.445.2271zm6.426-7.8946l-.306-.3957-.001.0013.307.3944zm27.998-5.6455l.051-.4974-.006-.0005-.045.4979zm4.452.459h.5v-.4511l-.449-.0463-.051.4974zm0 47.3672v.5h.5V89h-.5zm-8.262 0l-.499.0335.032.4665h.467V89zm-.367-5.4619l.499-.0336-.09-1.3444-.809 1.078.4.3zM394.085 89l-.151-.4766-.001.0003.152.4763zm-13.311-1.2852l-.22.4492.004.0018.216-.451zm-4.131-2.7998l-.336.3704.005.0043.331-.3747zm25.29-36.5351h.5v-.4414l-.438-.0548-.062.4962zm-12.071.6885l.146.4782.006-.002-.152-.4762zm-5.645 3.2128l-.343-.3641-.001.0005.344.3636zm-.689 27.1719l-.357.3497.004.0039.353-.3536zm17.074-1.0097l.374.3324.004-.0044-.378-.328zm1.331-1.8819l.448.2236.052-.1055v-.1181h-.5zm-28.391 3.7427c-.983-1.698-1.779-3.7045-2.381-6.0256l-.968.2514c.621 2.3911 1.447 4.4849 2.483 6.2752l.866-.501zm-2.38-6.0197c-.568-2.3014-.858-5.332-.858-9.1058h-1c0 3.8147.292 6.9346.887 9.3454l.971-.2396zm-.858-9.1058c0-3.7204.795-7.1302 2.379-10.2378l-.891-.4541c-1.66 3.257-2.488 6.8238-2.488 10.6919h1zm2.378-10.2362c1.622-3.1537 3.719-5.7268 6.288-7.7287l-.614-.7889c-2.694 2.0984-4.881 4.7883-6.564 8.0603l.89.4573zm6.287-7.7275c5.007-3.8683 11.244-5.8166 18.742-5.8166v-1c-7.679 0-14.141 1.999-19.354 6.0252l.612.7914zm18.742-5.8166c3.943 0 6.908.0919 8.905.2734l.09-.9959c-2.043-.1857-5.044-.2775-8.995-.2775v1zm8.95-.2246l-.051.4974v.0001h.001v.0001h.001c0 .0001.001.0002.002.0002.001.0002.003.0004.005.0006l.008.0008.022.0022c.027.0028 0 .0001.03.0032.004.0004 0 0 .005.0004.005.0005-.001 0 .004.0005l.01.001.01.001.005.0005.005.0006c.045.0046 0 0 .048.0049.041.0042.013.0013.057.0059.03.0031 0 0 .031.0032.022.0022.012.0012.034.0035l.004.0004.005.0005c.005.0006.003.0003.009.0009l.009.0009c.001.0002.003.0003.004.0005l.005.0005c.021.0022.016.0016.038.0039.01.001.07.0072.082.0085.046.0047-.001-.0001.045.0046.045.0046.002.0002.047.0048.005.0005.019.002.024.0025.019.002.005.0005.025.0026l.006.0006c.002.0002.004.0004.006.0007l.013.0013.026.0026c.099.0103.115.0119.226.0233.03.0032 0 0 .031.0032.034.0035-.004-.0003.031.0032.004.0004.012.0013.016.0017l.008.0008c.002.0003.005.0005.008.0008.035.0037-.004-.0004.032.0033.025.0026.041.0043.066.0069.049.005-.015-.0016.034.0035.022.0022.013.0012.035.0035.003.0003.005.0006.008.0009l.009.0009.009.0009c.003.0003.006.0006.009.001l.009.0009c.003.0003.006.0006.008.0009l.009.0009.009.0009c.019.0019.054.0055.073.0075.022.0022.016.0016.037.0039.02.002.018.0018.038.0039l.019.0019c.003.0004.007.0007.01.001.003.0003.006.0007.009.001.027.0028.012.0012.039.004.068.007.251.0259.331.0341.045.0046-.002-.0002.044.0045.003.0004.007.0008.011.0011.003.0004.007.0008.011.0012l.011.0011c.003.0004.007.0008.011.0012.019.0019.003.0003.022.0023.028.0028-.005-.0006.023.0023.052.0053-.007-.0007.045.0047.003.0002.089.0092.092.0095.054.0055-.007-.0007.047.0048.045.0047.003.0003.048.0049.005.0005.019.002.024.0025.022.0022.002.0002.024.0025l.012.0012c.004.0005.008.0009.012.0013l.025.0025c.002.0003.095.0099.099.0102.004.0004.008.0009.012.0013l.013.0013c.008.0008.017.0018.025.0026.048.0049.002.0002.051.0052.011.0012.014.0015.025.0027.018.0018.009.0008.026.0026.004.0005.009.0009.013.0014.004.0004.009.0008.013.0013.011.0011.015.0015.026.0027.044.0045.009.0009.052.0054l.027.0027c.044.0046-.018-.0018.026.0027.005.0005.009.001.014.0014.004.0005.009.0009.013.0014.015.0015.012.0012.027.0028.045.0046.009.0009.054.0055.021.0022.006.0007.027.0028.04.0041-.012-.0012.028.0029.004.0004.009.0009.013.0014.005.0005.01.0009.014.0014.022.0022.006.0006.028.0029.046.0047.009.0009.056.0057.024.0026.003.0003.028.0029.037.0038-.01-.001.028.0029.004.0005.009.001.014.0015.005.0004.009.0009.014.0014.025.0026.003.0003.029.0029.041.0043.016.0017.057.006l.029.0029c.035.0037-.006-.0006.029.003.005.0005.009.001.014.0015l.015.0015c.029.0031 0 0 .029.003.108.0112.128.0133.239.0247l.031.0031c.033.0035-.003-.0003.03.0032.006.0005.011.0011.016.0016.005.0005.01.001.015.0016.035.0035-.003-.0004.031.0032.023.0024.039.004.062.0064.035.0036-.003-.0004.032.0032.034.0036-.003-.0003.031.0033.005.0005.011.001.016.0016.005.0005.01.0011.016.0016.035.0037-.004-.0004.031.0033.024.0024.04.0041.064.0066.036.0037-.003-.0004.032.0033.032.0032.001 0 .033.0033.005.0006.011.0011.016.0017l.016.0016c.04.0042-.007-.0007.033.0034.12.0124.142.0147.265.0273.049.0051-.016-.0016.034.0035.021.0022.012.0013.034.0035.005.0006.011.0012.017.0018.005.0006.011.0011.017.0017.005.0006.011.0012.017.0018.005.0006.011.0012.017.0017.026.0027.043.0045.069.0071.005.0006.011.0012.017.0018.006.0006.011.0012.017.0018.022.0023.013.0013.035.0036l.102-.9948c-.088-.0091-.188-.0194-.274-.0282-.005-.0006-.011-.0011-.016-.0017-.006-.0006-.012-.0012-.017-.0018-.006-.0005-.011-.0011-.017-.0017l-.017-.0017c-.025-.0026-.041-.0043-.066-.0069-.056-.0057-.077-.0078-.132-.0135-.118-.0122-.141-.0146-.256-.0265-.08-.0082-.171-.0176-.248-.0255-.004-.0005-.117-.0121-.121-.0125-.037-.0038-.082-.0085-.118-.0122-.042-.0043-.017-.0017-.059-.006-.005-.0005-.009-.001-.014-.0015l-.015-.0015c-.004-.0005-.009-.001-.014-.0015l-.015-.0015c-.004-.0005-.009-.001-.014-.0015-.005-.0004-.01-.0009-.014-.0014l-.015-.0015c-.004-.0005-.009-.001-.014-.0015-.047-.0048-.01-.001-.057-.0058-.071-.0074-.153-.0158-.221-.0229l-.014-.0014-.014-.0014c-.004-.0005-.009-.0009-.013-.0014-.005-.0004-.009-.0009-.013-.0014-.045-.0046-.01-.0009-.054-.0055-.021-.0021-.086-.0088-.105-.0109-.049-.005-.004-.0003-.052-.0053l-.013-.0013c-.005-.0005-.009-.0009-.013-.0014-.004-.0004-.009-.0008-.013-.0013-.004-.0004-.008-.0009-.013-.0013-.004-.0004-.008-.0009-.012-.0013l-.013-.0013c-.004-.0005-.009-.0009-.013-.0013-.004-.0005-.008-.0009-.013-.0013-.047-.0049-.003-.0003-.05-.0052-.063-.0066-.135-.0139-.195-.0202-.103-.0106-.088-.009-.187-.0193-.014-.0014-.077-.0079-.091-.0093-.002-.0002-.042-.0043-.044-.0045-.004-.0004-.007-.0008-.011-.0012-.004-.0003-.007-.0007-.011-.0011-.001-.0001-.021-.0022-.022-.0022-.055-.0057-.117-.0121-.169-.0175-.07-.0072-.094-.0097-.161-.0166-.075-.0077-.232-.0239-.296-.0305-.088-.0091-.184-.019-.261-.0269-.005-.0005-.115-.0118-.117-.0121-.035-.0036-.077-.0079-.109-.0112-.11-.0113-.284-.0293-.348-.0358-.058-.0061-.074-.0077-.121-.0126-.038-.0039-.061-.0063-.087-.009-.016-.0016-.048-.0049-.052-.0053-.001-.0001-.004-.0004-.004-.0005-.001 0-.002-.0001-.002-.0002-.001 0-.001 0-.002-.0001l-.003-.0003c0-.0001-.001-.0001-.001-.0002-.001-.0001-.001 0-.001-.0001-.001-.0001-.003-.0003-.004-.0003v-.0001h-.001l-.051.4973zm3.952.459V89h1V41.6328h-1zm.5 46.8672h-8.262v1h8.262v-1zm-7.763.4665l-.367-5.462-.998.0671.367 5.4619.998-.067zm-1.266-5.7284c-1.757 2.3432-4.457 4.1143-8.15 5.2853l.302.9532c3.834-1.2157 6.734-3.0859 8.648-5.6385l-.8-.6zm-8.151 5.2856c-1.389.4431-2.821.6648-4.3.6648v1c1.58 0 3.116-.2373 4.604-.7122l-.304-.9526zm-4.3.6648c-1.465 0-2.915-.1495-4.351-.4485l-.204.979c1.503.313 3.021.4695 4.555.4695v-1zm-4.351-.4485c-1.426-.2971-2.856-.7882-4.292-1.4761l-.432.9019c1.502.7197 3.009 1.2383 4.52 1.5532l.204-.979zm-4.288-1.4743c-1.394-.6822-2.734-1.5894-4.02-2.7253l-.662.7493c1.346 1.1896 2.76 2.149 4.242 2.8743l.44-.8983zm-4.015-2.721c-1.276-1.1572-2.424-2.5719-3.442-4.2495l-.855.519c1.062 1.7495 2.27 3.2416 3.625 4.4712l.672-.7407zm25.016-36.661c-1.978-.2473-3.957-.371-5.937-.371v1c1.938 0 3.875.1211 5.813.3633l.124-.9923zm-5.937-.371c-1.988 0-4.105.3629-6.348 1.0794l.304.9525c2.164-.6911 4.177-1.0319 6.044-1.0319v-1zm-6.342 1.0775c-2.271.6939-4.222 1.8017-5.842 3.327l.685.7281c1.501-1.4122 3.314-2.4463 5.449-3.0988l-.292-.9563zm-5.843 3.3274c-3.378 3.1875-5.022 8.0095-5.022 14.3627h1c0-6.1924 1.601-10.7031 4.709-13.6354l-.687-.7273zm-5.022 14.3627c0 6.0035 1.407 10.5462 4.32 13.5225l.714-.6994c-2.656-2.7151-4.034-6.9543-4.034-12.8231h-1zm4.324 13.5264c2.204 2.2044 4.871 3.3134 7.972 3.3134v-1c-2.834 0-5.247-1.0023-7.265-3.0205l-.707.7071zm7.972 3.3134c3.964 0 7.253-1.4501 9.829-4.3443l-.747-.6649c-2.381 2.6748-5.395 4.0092-9.082 4.0092v1zm9.833-4.3487c.627-.721 1.099-1.3839 1.401-1.9863l-.895-.4472c-.249.4992-.664 1.0909-1.261 1.7774l.755.6561zm1.453-2.2099V48.3799h-1v28.1816h1zm17.634 24.1885l.142-.479-.642-.191v.67h.5zm7.757-.505l-.173-.4693-.008.0032.181.4661zm3.901-2.3407l-.334-.3717-.004.0031.338.3686zm5.003-7.8027l.461.1945.08-.1897-.077-.1911-.464.1863zm-19.461-48.4688v-.5h-.739l.275.6863.464-.1863zm9.777 0l.47-.1704-.12-.3296h-.35v.5zm13.677 37.7285l-.47.1704.496 1.3682.45-1.3841-.476-.1545zm12.255-37.7285v-.5h-.363l-.112.3455.475.1545zm9.685 0l.469.1718.246-.6718h-.715v.5zM443.2 94.8291l.469.1732v-.0014l-.469-.1718zm-6.105 9.1339l.313.39.002-.002-.315-.388zm-15.33 4.039l.055-.497h-.001l-.054.497zm-1.698-.184h-.5v.449l.446.048.054-.497zm-.142-6.589c.892.265 2.063.388 3.493.388v-1c-1.386 0-2.449-.121-3.209-.346l-.284.958zm3.493.388c1.506 0 3.036-.305 4.587-.906l-.362-.9321c-1.448.5621-2.856.8381-4.225.8381v1zm4.578-.903c1.556-.571 2.914-1.3843 4.067-2.4411l-.676-.7372c-1.05.9628-2.293 1.7102-3.736 2.2401l.345.9382zm4.064-2.4381c1.912-1.7212 3.615-4.3967 5.129-7.9798l-.922-.3891c-1.485 3.5159-3.117 6.0422-4.876 7.6256l.669.7433zm5.132-8.3606l-19.461-48.4688-.928.3726 19.461 48.4688.928-.3726zm-19.925-47.7825h9.777v-1h-9.777v1zm9.306-.3296l13.678 37.7285.94-.3408-13.677-37.7285-.941.3408zm14.624 37.7126l12.255-37.7285-.951-.309-12.255 37.7286.951.3089zm11.779-37.383h9.685v-1h-9.685v1zm9.215-.6718L442.73 94.6573l.939.3436 19.461-53.1963-.939-.3436zm-19.46 53.1949c-1.446 3.9158-3.436 6.8771-5.951 8.9191l.63.776c2.687-2.181 4.767-5.3087 6.259-9.3487l-.938-.3464zm-5.949 8.9171c-3.314 2.664-7.768 4.021-13.41 4.021v1c5.801 0 10.497-1.397 14.036-4.241l-.626-.78zm-13.41 4.021c-.501 0-1.018-.03-1.552-.089l-.11.994c.568.063 1.122.095 1.662.095v-1zm-1.553-.089l-1.698-.184-.108.994 1.698.184.108-.994zm-1.252.313v-7.068h-1v7.068h1z"/>
  <ellipse cx="56" cy="54.5" fill="#fff" rx="56" ry="54.5"/>
  <path fill="#20295C" d="M30 26v67l38.976-54.4851L30 26z"/>
  <path fill="#2CAEE4" d="M82.4747 93V26l-26.3204 8.4538 12.6408 4.071-4.6982 6.5555-20.276-6.1732L82.4747 93z"/>
</svg>
