<svg xmlns="http://www.w3.org/2000/svg" viewBox="0 0 406.613 88.391">
  <defs/>
  <path fill="#20295C" d="M0 1.797v67l38.976-54.485L0 1.797z"/>
  <path fill="#2CAEE4" d="M52.475 68.797v-67l-26.321 8.454 12.641 4.071-4.698 6.555-20.276-6.173 38.654 54.093z"/>
  <path fill="#20295C" d="M73.893 4.906h5.875l22.765 26.162 22.674-26.162h5.875v63.891h-9.18V20.145l-2.708 3.671-16.661 19.415-16.661-19.369-2.8-3.672v48.607h-9.179V4.906zm65.225 75.641c.826.245 1.943.367 3.35.367 1.438 0 2.907-.291 4.406-.872 1.5-.551 2.8-1.331 3.902-2.341 1.836-1.652 3.503-4.253 5.003-7.803L136.318 21.43h9.776l13.678 37.728 12.255-37.728h9.684L162.25 74.626c-1.468 3.978-3.503 7.022-6.104 9.134-3.427 2.754-8.002 4.131-13.724 4.131-.52 0-1.055-.031-1.606-.092l-1.698-.184v-7.068zM186.397.5h9.179v50.351c0 6.058 1.377 9.623 4.131 10.694.918.367 1.897.551 2.938.551 1.04 0 1.973-.123 2.8-.368v7.069l-1.699.183c-.55.062-1.086.092-1.606.092-5.875 0-10.113-1.927-12.714-5.783-2.02-3.029-3.029-7.16-3.029-12.393V.5zm27.772 59.852c-1.01-1.745-1.821-3.795-2.433-6.151-.581-2.356-.872-5.431-.872-9.225 0-3.795.811-7.283 2.433-10.465 1.652-3.213 3.794-5.845 6.426-7.895 5.11-3.947 11.459-5.921 19.047-5.921 3.948 0 6.931.092 8.951.276l4.452.459v47.367h-8.262l-.367-5.462c-1.836 2.448-4.636 4.268-8.399 5.462-1.439.459-2.923.688-4.453.688-1.499 0-2.983-.153-4.452-.459-1.469-.306-2.937-.811-4.406-1.514-1.438-.704-2.815-1.637-4.131-2.8-1.316-1.193-2.494-2.647-3.534-4.36zm28.824-32.175c-1.958-.245-3.917-.367-5.875-.367-1.928 0-3.993.351-6.196 1.055-2.203.673-4.085 1.744-5.646 3.213-3.243 3.06-4.865 7.726-4.865 13.999 0 5.936 1.392 10.327 4.177 13.173 2.111 2.111 4.651 3.167 7.619 3.167 3.825 0 6.977-1.392 9.455-4.177.612-.704 1.056-1.331 1.331-1.882V28.177zm29.975 58.979h-9.179V21.43h8.262l.367 5.416c1.836-2.448 4.651-4.269 8.445-5.462 1.469-.459 2.953-.689 4.452-.689 1.53 0 3.029.169 4.498.505 1.469.306 2.922.826 4.361 1.561 1.438.703 2.815 1.652 4.13 2.845 1.316 1.163 2.479 2.617 3.489 4.361 2.203 3.763 3.304 8.43 3.304 13.999 0 8.506-2.937 15.009-8.812 19.507-5.202 4.008-11.536 6.012-19.002 6.012h-2.295c-.734 0-1.408-.015-2.02-.046v17.717zm0-25.152c.857.245 2.54.367 5.049.367 2.509 0 4.866-.352 7.069-1.056 2.203-.703 4.069-1.79 5.599-3.258 3.244-3.121 4.866-7.818 4.866-14.091 0-5.906-1.408-10.266-4.223-13.081-2.081-2.081-4.621-3.121-7.619-3.121-3.764 0-6.885 1.392-9.364 4.176-.642.704-1.101 1.331-1.377 1.882v28.182zm43.378-1.652c-1.01-1.745-1.82-3.795-2.432-6.151-.582-2.356-.873-5.431-.873-9.225 0-3.795.811-7.283 2.433-10.465 1.652-3.213 3.794-5.845 6.426-7.895 5.11-3.947 11.459-5.921 19.048-5.921 3.947 0 6.93.092 8.95.276l4.452.459v47.367h-8.262l-.367-5.462c-1.836 2.448-4.636 4.268-8.399 5.462-1.438.459-2.922.688-4.452.688-1.5 0-2.984-.153-4.453-.459-1.468-.306-2.937-.811-4.406-1.514-1.438-.704-2.815-1.637-4.131-2.8-1.315-1.193-2.493-2.647-3.534-4.36zm28.824-32.175c-1.958-.245-3.916-.367-5.875-.367-1.927 0-3.993.351-6.196 1.055-2.203.673-4.085 1.744-5.645 3.213-3.244 3.06-4.866 7.726-4.866 13.999 0 5.936 1.393 10.327 4.177 13.173 2.111 2.111 4.651 3.167 7.619 3.167 3.825 0 6.977-1.392 9.455-4.177.612-.704 1.056-1.331 1.331-1.882V28.177zm18.134 52.37c.826.245 1.943.367 3.351.367 1.438 0 2.906-.291 4.406-.872 1.499-.551 2.8-1.331 3.901-2.341 1.836-1.652 3.504-4.253 5.003-7.803L360.504 21.43h9.777l13.677 37.728 12.255-37.728h9.685l-19.461 53.196c-1.469 3.978-3.504 7.022-6.105 9.134-3.427 2.754-8.001 4.131-13.723 4.131-.521 0-1.056-.031-1.607-.092l-1.698-.184v-7.068z"/>
  <path fill="#20295C" d="M73.893 4.906v-.5h-.5v.5h.5zm5.875 0l.377-.328-.15-.172h-.227v.5zm22.765 26.162l-.377.329.378.434.377-.435-.378-.328zm22.674-26.162v-.5h-.229l-.149.173.378.327zm5.875 0h.5v-.5h-.5v.5zm0 63.891v.5h.5v-.5h-.5zm-9.18 0h-.5v.5h.5v-.5zm0-48.652h.5v-1.521l-.902 1.224.402.297zm-2.708 3.671l.379.326.012-.014.011-.015-.402-.297zm-16.661 19.415l-.379.326.379.442.379-.442-.379-.326zM85.872 23.862l-.397.303.008.012.01.011.379-.326zm-2.8-3.672l.398-.303-.898-1.177v1.48h.5zm0 48.607v.5h.5v-.5h-.5zm-9.179 0h-.5v.5h.5v-.5zm0-63.391h5.875v-1h-5.875v1zm5.497-.172l22.766 26.163.754-.657L80.145 4.578l-.755.656zm23.521 26.162l22.674-26.162-.756-.655-22.674 26.162.756.655zm22.296-25.99h5.875v-1h-5.875v1zm5.375-.5v63.891h1V4.906h-1zm.5 63.391h-9.18v1h9.18v-1zm-8.68.5V20.145h-1v48.652h1zm-.902-48.949l-2.708 3.672.804.593 2.708-3.672-.804-.593zm-2.685 3.643l-16.662 19.415.759.651 16.661-19.415-.758-.651zm-15.903 19.414L86.251 23.536l-.758.652 16.661 19.369.758-.652zM86.27 23.559l-2.8-3.672-.795.607 2.8 3.671.795-.606zm-3.698-3.369v48.607h1V20.19h-1zm.5 48.107h-9.179v1h9.179v-1zm-8.679.5V4.906h-1v63.891h1zm64.725 11.75l.142-.48-.642-.19v.67h.5zm7.756-.505l-.172-.469-.008.003.18.466zm3.902-2.341l-.335-.372-.003.004.338.368zm5.003-7.803l.46.195.08-.19-.076-.191-.464.186zM136.318 21.43v-.5h-.74l.276.686.464-.186zm9.776 0l.47-.171-.119-.329h-.351v.5zm13.678 37.728l-.47.171.496 1.368.449-1.384-.475-.155zm12.255-37.728v-.5h-.364l-.112.345.476.155zm9.684 0l.47.171.246-.671h-.716v.5zM162.25 74.626l.469.173.001-.001-.47-.172zm-6.104 9.134l.313.389.002-.001-.315-.388zm-15.33 4.039l.055-.497h-.001l-.054.497zm-1.698-.184h-.5v.449l.446.048.054-.497zm-.142-6.589c.892.265 2.063.388 3.492.388v-1c-1.386 0-2.448-.121-3.208-.347l-.284.959zm3.492.388c1.507 0 3.037-.305 4.587-.906l-.361-.932c-1.449.561-2.856.838-4.226.838v1zm4.579-.903c1.556-.571 2.914-1.384 4.067-2.441l-.676-.737c-1.05.962-2.294 1.71-3.736 2.24l.345.938zm4.063-2.438c1.913-1.721 3.616-4.397 5.129-7.98l-.921-.389c-1.485 3.516-3.117 6.042-4.877 7.625l.669.744zm5.133-8.361l-19.461-48.469-.928.373 19.461 48.469.928-.373zM136.318 21.93h9.776v-1h-9.776v1zm9.306-.33l13.678 37.729.94-.341-13.678-37.729-.94.341zm14.623 37.713l12.255-37.729-.951-.309-12.255 37.729.951.309zm11.78-37.383h9.684v-1h-9.684v1zm9.215-.672l-19.461 53.196.939.344 19.461-53.197-.939-.343zm-19.461 53.195c-1.445 3.916-3.435 6.877-5.95 8.919l.63.776c2.687-2.181 4.767-5.309 6.258-9.349l-.938-.346zm-5.948 8.917c-3.315 2.663-7.768 4.021-13.411 4.021v1c5.802 0 10.498-1.397 14.037-4.242l-.626-.779zm-13.411 4.021c-.5 0-1.017-.03-1.551-.089l-.11.994c.568.063 1.122.095 1.661.095v-1zm-1.552-.089l-1.699-.184-.107.994 1.698.184.108-.994zm-1.252.313v-7.068h-1v7.068h1zM186.397.5V0h-.5v.5h.5zm9.179 0h.5V0h-.5v.5zm4.131 61.045l.186-.464-.005-.002-.181.466zm5.738.183h.5v-.669l-.643.19.143.479zm0 7.069l.053.497.447-.048v-.449h-.5zm-1.699.183l-.053-.497-.002.001.055.496zm-14.32-5.691l-.416.277.001.003.415-.28zM186.397 1h9.179V0h-9.179v1zm8.679-.5v50.351h1V.5h-1zm0 50.351c0 3.059.347 5.534 1.067 7.397.723 1.873 1.839 3.163 3.383 3.763l.362-.932c-1.21-.471-2.159-1.499-2.812-3.191-.658-1.701-1-4.038-1-7.037h-1zm4.446 11.158c.98.392 2.022.587 3.123.587v-1c-.98 0-1.896-.173-2.752-.515l-.371.928zm3.123.587c1.079 0 2.061-.127 2.942-.388l-.285-.959c-.771.229-1.655.347-2.657.347v1zm2.3-.868v7.069h1v-7.069h-1zm.446 6.572l-1.698.183.107.995 1.698-.184-.107-.994zm-1.7.184c-.534.059-1.051.088-1.551.088v1c.54 0 1.094-.032 1.662-.095l-.111-.993zm-1.551.088c-5.758 0-9.816-1.881-12.3-5.563l-.829.56c2.719 4.029 7.137 6.003 13.129 6.003v-1zm-12.298-5.56c-1.946-2.919-2.945-6.941-2.945-12.116h-1c0 5.29 1.02 9.53 3.113 12.67l.832-.554zm-2.945-12.116V.5h-1v50.396h1zm27.272 9.456l-.433.25.006.009.427-.259zm-2.433-6.151l-.485.12.001.006.484-.126zm1.561-19.69l-.445-.229-.001.002.446.227zm6.426-7.895l-.306-.396-.002.002.308.394zm27.998-5.645l.051-.498h-.006l-.045.498zm4.452.459h.5v-.451l-.449-.047-.051.498zm0 47.367v.5h.5v-.5h-.5zm-8.262 0l-.499.033.032.467h.467v-.5zm-.367-5.462l.499-.034-.091-1.344-.808 1.078.4.3zm-8.399 5.462l-.152-.477-.001.001.153.476zm-13.311-1.285l-.22.449.004.002.216-.451zm-4.131-2.8l-.336.37.005.005.331-.375zm25.29-36.535h.5v-.442l-.438-.054-.062.496zm-12.071.688l.146.478.006-.002-.152-.476zm-5.646 3.213l-.342-.364h-.001l.343.364zm-.688 27.172l-.358.35.004.004.354-.354zm17.074-1.01l.374.333.003-.005-.377-.328zm1.331-1.882l.447.224.053-.106v-.118h-.5zm-28.391 3.743c-.983-1.698-1.779-3.704-2.382-6.026l-.968.252c.621 2.391 1.448 4.485 2.484 6.275l.866-.501zm-2.38-6.02c-.568-2.301-.858-5.332-.858-9.105h-1c0 3.814.292 6.934.887 9.345l.971-.24zm-.858-9.105c0-3.721.795-7.131 2.378-10.238l-.891-.454c-1.659 3.257-2.487 6.823-2.487 10.692h1zm2.377-10.237c1.622-3.153 3.719-5.726 6.289-7.728l-.615-.789c-2.693 2.098-4.88 4.788-6.563 8.06l.889.457zm6.287-7.727c5.008-3.868 11.244-5.817 18.742-5.817v-1c-7.679 0-14.141 1.999-19.353 6.025l.611.792zm18.742-5.817c3.944 0 6.909.092 8.905.274l.091-.996c-2.043-.186-5.044-.278-8.996-.278v1zm8.951-.224l-.052.497h.005c.001.001.003.001.005.001.001 0 .007.001.008.001s.018.002.022.002c.027.003 0 0 .03.003l.004.001h.005c.001 0 .008.001.009.001.011.001-.001 0 .01.001.003 0 .004 0 .006.001h.005c.045.005 0 0 .048.005.041.004.013.001.056.006.031.003.001 0 .032.003.021.002.011.001.034.004h.004c.001 0 .003 0 .004.001.006 0 .004 0 .009.001.01.001-.001-.001.009 0 .002.001.003.001.005.001h.005c.021.003.015.002.038.004.01.001.069.008.082.009.045.005-.001 0 .045.004.044.005.001.001.046.005.005.001.02.002.025.003.019.002.005 0 .024.002.002.001.005.001.007.001s.004 0 .006.001c.003 0 .01.001.013.001.011.001.014.001.025.003.1.01.116.011.227.023l.03.003c.035.004-.003 0 .032.003.003.001.011.002.015.002.003 0 .006 0 .008.001.003 0 .006 0 .008.001.036.003-.003-.001.033.003.024.002.041.004.066.007.049.005-.015-.002.034.003.022.002.012.001.034.004.003 0 .006 0 .009.001.003 0 .006 0 .009.001h.009c.003.001.006.001.008.001.003.001.006.001.009.001.003.001.006.001.009.001.003.001.006.001.009.001.003 0 .006.001.009.001.019.002.054.006.073.008.021.002.015.001.037.003.02.002.018.002.038.004.003.001.016.002.019.002.003.001.006.001.01.001.003.001.006.001.009.001.027.003.012.001.039.004.068.007.251.026.331.034.045.005-.002 0 .043.005.004 0 .008.001.011.001.004 0 .008.001.011.001.004 0 .008.001.011.001.004.001.008.001.012.001.019.002.003.001.022.003.028.003-.006-.001.022.002.052.005-.006-.001.046.005.002 0 .089.009.092.009.054.006-.007 0 .047.005.045.005.002 0 .048.005.005 0 .019.002.024.002.021.003.002.001.024.003.004 0 .008.001.012.001.004.001.008.001.012.001.008.001.017.002.024.003.003 0 .096.01.099.01.005.001.009.001.013.001.004.001.008.001.012.002.008.001.018.002.026.002.048.005.002.001.05.006.012.001.015.001.026.002.017.002.008.001.026.003.004 0 .008.001.013.001.004.001.008.001.013.002.011.001.014.001.026.002.043.005.008.001.052.006.012.001.015.001.027.002.044.005-.018-.001.026.003.005.001.009.001.013.001.005.001.009.001.014.002.015.001.012.001.027.003.045.004.009.001.054.005.021.002.006.001.027.003.039.004-.012-.001.027.003.005 0 .01.001.014.001.005.001.009.001.014.002.021.002.006 0 .028.003.046.004.009 0 .055.005.025.003.003.001.028.003.038.004-.009-.001.029.003.004.001.009.001.014.002.004 0 .009 0 .014.001.025.003.003 0 .028.003.041.004.016.002.058.006.025.002.003 0 .029.003.035.003-.007-.001.029.003.004 0 .009.001.014.001.005.001.01.001.015.002l.029.003c.108.011.128.013.239.024l.031.004c.033.003-.003-.001.03.003.005 0 .01.001.016.001.005.001.01.001.015.002.034.003-.004 0 .031.003.023.003.039.004.062.007.035.003-.003-.001.031.003.035.003-.003-.001.032.003.005.001.01.001.016.002.005 0 .01.001.015.001.036.004-.003 0 .032.004.024.002.04.004.064.006.036.004-.004 0 .032.003.032.004.001 0 .032.004.006 0 .011.001.017.001.005.001.01.002.016.002.04.004-.008-.001.032.003.12.013.143.015.266.028.049.005-.016-.002.033.003.022.002.013.002.034.004.006 0 .012.001.017.002.006 0 .012.001.017.001.006.001.012.001.017.002.006.001.012.001.018.002.025.002.042.004.068.007.006 0 .012.001.018.002.005 0 .011.001.017.001.022.003.012.002.035.004l.102-.995c-.088-.009-.188-.019-.274-.028-.005-.001-.011-.001-.017-.002-.005 0-.011-.001-.016-.001-.006-.001-.012-.002-.017-.002-.006-.001-.011-.001-.017-.002-.025-.002-.042-.004-.067-.007-.055-.005-.076-.008-.131-.013-.118-.012-.142-.015-.257-.027-.08-.008-.17-.017-.247-.025-.005-.001-.117-.012-.121-.013-.037-.004-.082-.008-.119-.012-.041-.004-.016-.002-.058-.006-.005 0-.01-.001-.014-.001-.005-.001-.01-.001-.015-.002-.005 0-.01-.001-.014-.001-.005-.001-.01-.001-.015-.002-.005 0-.009-.001-.014-.001-.005-.001-.01-.001-.015-.002-.004 0-.009-.001-.014-.001-.005-.001-.009-.001-.014-.002-.047-.005-.01-.001-.057-.006-.072-.007-.153-.015-.222-.023-.004 0-.009 0-.013-.001-.005 0-.009-.001-.014-.001-.004-.001-.009-.001-.013-.002-.005 0-.009-.001-.014-.001-.044-.005-.009-.001-.053-.006-.021-.002-.086-.008-.106-.011-.049-.005-.003 0-.052-.005-.004 0-.008-.001-.013-.001-.004-.001-.008-.001-.012-.002-.005 0-.009 0-.013-.001-.004 0-.009-.001-.013-.001-.004-.001-.008-.001-.013-.001-.004-.001-.008-.001-.012-.002-.005 0-.009-.001-.013-.001-.004-.001-.009-.001-.013-.001-.047-.005-.003-.001-.05-.006-.064-.006-.135-.013-.196-.02-.102-.01-.087-.009-.187-.019-.014-.001-.077-.008-.09-.009-.002-.001-.042-.005-.044-.005-.004 0-.008-.001-.011-.001-.004 0-.007-.001-.011-.001-.001 0-.021-.002-.022-.002-.055-.006-.117-.012-.169-.018-.07-.007-.095-.01-.161-.016-.075-.008-.233-.024-.296-.031-.089-.009-.184-.019-.261-.027-.005 0-.115-.012-.117-.012-.035-.004-.077-.008-.109-.011-.11-.011-.284-.029-.348-.036-.058-.006-.074-.008-.122-.013-.037-.003-.06-.006-.086-.009-.016-.001-.048-.004-.053-.005h-.004s-.001 0-.002-.001h-.006-.001c-.001 0-.003-.001-.003-.001h-.001l-.051.498zm3.952.459v47.367h1V21.43h-1zm.5 46.867h-8.262v1h8.262v-1zm-7.763.466l-.367-5.462-.998.067.367 5.462.998-.067zm-1.266-5.728c-1.758 2.343-4.457 4.114-8.151 5.285l.303.953c3.834-1.215 6.733-3.085 8.648-5.638l-.8-.6zm-8.152 5.286c-1.388.443-2.821.664-4.3.664v1c1.581 0 3.117-.237 4.605-.712l-.305-.952zm-4.3.664c-1.465 0-2.915-.149-4.35-.448l-.204.979c1.502.313 3.021.469 4.554.469v-1zm-4.35-.448c-1.426-.297-2.856-.788-4.292-1.476l-.432.902c1.502.719 3.009 1.238 4.52 1.553l.204-.979zm-4.288-1.474c-1.394-.683-2.734-1.59-4.02-2.726l-.662.75c1.346 1.189 2.76 2.149 4.242 2.874l.44-.898zm-4.015-2.721c-1.276-1.158-2.424-2.572-3.443-4.25l-.854.519c1.062 1.75 2.27 3.242 3.625 4.471l.672-.74zm25.016-36.661c-1.979-.248-3.958-.371-5.937-.371v1c1.938 0 3.875.121 5.813.363l.124-.992zm-5.937-.371c-1.988 0-4.105.362-6.348 1.079l.304.952c2.163-.691 4.177-1.031 6.044-1.031v-1zm-6.342 1.077c-2.271.694-4.222 1.802-5.842 3.327l.685.728c1.501-1.412 3.314-2.446 5.449-3.099l-.292-.956zm-5.843 3.327c-3.379 3.188-5.022 8.01-5.022 14.363h1c0-6.192 1.6-10.703 4.708-13.635l-.686-.728zm-5.022 14.363c0 6.004 1.407 10.546 4.319 13.523l.715-.7c-2.656-2.715-4.034-6.954-4.034-12.823h-1zm4.323 13.527c2.205 2.204 4.871 3.313 7.973 3.313v-1c-2.835 0-5.247-1.002-7.266-3.021l-.707.708zm7.973 3.313c3.963 0 7.252-1.45 9.829-4.344l-.747-.665c-2.381 2.675-5.396 4.009-9.082 4.009v1zm9.832-4.349c.627-.721 1.1-1.384 1.401-1.986l-.894-.447c-.25.499-.664 1.091-1.261 1.777l.754.656zm1.454-2.21V28.177h-1v28.181h1zm29.475 30.798v.5h.5v-.5h-.5zm-9.179 0h-.5v.5h.5v-.5zm0-65.726v-.5h-.5v.5h.5zm8.262 0l.498-.034-.031-.466h-.467v.5zm.367 5.416l-.499.033.091 1.344.808-1.077-.4-.3zm8.445-5.462l-.149-.477h-.001l.15.477zm8.95-.184l-.111.488.009.002.102-.49zm4.361 1.561l-.228.445.008.004.22-.449zm4.13 2.845l-.336.371.005.004.331-.375zm3.489 4.361l-.433.25.001.002.432-.252zm-5.508 33.506l-.304-.397-.001.001.305.396zm-23.317 5.966l.025-.499-.525-.026v.525h.5zm0-7.435h-.5v.377l.363.104.137-.481zm17.717-3.947l.347.36-.347-.36zm-16.34-26.117l.37.338.004-.005-.374-.333zm-1.377 1.882l-.447-.223-.053.105v.118h.5zm0 52.834h-9.179v1h9.179v-1zm-8.679.5V21.43h-1v65.726h1zm-.5-65.226h8.262v-1h-8.262v1zm7.763-.467l.367 5.416.998-.067-.368-5.416-.997.067zm1.266 5.683c1.756-2.343 4.471-4.114 8.195-5.285l-.3-.954c-3.864 1.215-6.78 3.085-8.695 5.639l.8.6zm8.194-5.285c1.422-.444 2.856-.666 4.303-.666v-1c-1.551 0-3.085.238-4.601.712l.298.954zm4.303-.666c1.493 0 2.955.164 4.387.493l.223-.975c-1.506-.345-3.043-.518-4.61-.518v1zm4.396.495c1.422.296 2.834.8 4.235 1.516l.455-.891c-1.475-.753-2.97-1.289-4.486-1.604l-.204.979zm4.243 1.52c1.391.681 2.73 1.602 4.015 2.767l.671-.741c-1.346-1.221-2.762-2.198-4.247-2.924l-.439.898zm4.019 2.771c1.27 1.122 2.4 2.532 3.387 4.236l.865-.501c-1.032-1.784-2.228-3.281-3.589-4.484l-.663.749zm3.388 4.238c2.148 3.669 3.236 8.242 3.236 13.747h1c0-5.634-1.114-10.393-3.373-14.252l-.863.505zm3.236 13.747c0 8.377-2.884 14.721-8.616 19.11l.608.794c6.018-4.608 9.008-11.268 9.008-19.904h-1zm-8.617 19.111c-5.103 3.932-11.325 5.908-18.697 5.908v1c7.561 0 14.006-2.031 19.307-6.116l-.61-.792zm-18.697 5.908h-2.295v1h2.295v-1zm-2.295 0c-.728 0-1.392-.015-1.995-.045l-.049.999c.621.031 1.303.046 2.044.046v-1zm-2.52.454v17.717h1V69.439h-1zm.363-6.954c.934.267 2.686.386 5.186.386v-1c-2.518 0-4.132-.125-4.911-.348l-.275.962zm5.186.386c2.557 0 4.965-.359 7.221-1.079l-.304-.953c-2.15.687-4.455 1.032-6.917 1.032v1zm7.221-1.079c2.269-.725 4.204-1.848 5.794-3.375l-.693-.721c-1.47 1.411-3.268 2.46-5.405 3.143l.304.953zm5.794-3.375c3.375-3.248 5.019-8.097 5.019-14.451h-1c0 6.191-1.6 10.736-4.712 13.73l.693.721zm5.019-14.451c0-5.975-1.424-10.489-4.37-13.435l-.707.707c2.685 2.685 4.077 6.891 4.077 12.728h1zm-4.37-13.435c-2.176-2.176-4.844-3.267-7.972-3.267v1c2.869 0 5.28.989 7.265 2.974l.707-.707zm-7.972-3.267c-3.905 0-7.163 1.452-9.737 4.344l.747.665c2.383-2.677 5.367-4.009 8.99-4.009v-1zm-9.733 4.339c-.658.722-1.151 1.388-1.455 1.996l.895.447c.246-.494.672-1.082 1.299-1.768l-.739-.675zm-1.508 2.219v28.182h1V33.822h-1zm43.878 26.53l-.433.25.006.009.427-.259zm-2.432-6.151l-.486.12.002.006.484-.126zm1.56-19.69l-.445-.229v.002l.445.227zm6.426-7.895l-.306-.396-.001.002.307.394zm27.998-5.645l.051-.498h-.006l-.045.498zm4.452.459h.5v-.451l-.449-.047-.051.498zm0 47.367v.5h.5v-.5h-.5zm-8.262 0l-.499.033.032.467h.467v-.5zm-.367-5.462l.499-.034-.09-1.344-.809 1.078.4.3zm-8.399 5.462l-.151-.477-.001.001.152.476zm-13.311-1.285l-.22.449.004.002.216-.451zm-4.131-2.8l-.336.37.005.005.331-.375zm25.29-36.535h.5v-.442l-.438-.054-.062.496zm-12.071.688l.146.478.006-.002-.152-.476zm-5.645 3.213l-.343-.364h-.001l.344.364zm-.689 27.172l-.357.35.004.004.353-.354zm17.074-1.01l.374.333.004-.005-.378-.328zm1.331-1.882l.448.224.052-.106v-.118h-.5zm-28.391 3.743c-.983-1.698-1.779-3.704-2.381-6.026l-.968.252c.621 2.391 1.447 4.485 2.483 6.275l.866-.501zm-2.38-6.02c-.568-2.301-.858-5.332-.858-9.105h-1c0 3.814.292 6.934.887 9.345l.971-.24zm-.858-9.105c0-3.721.795-7.131 2.379-10.238l-.891-.454c-1.66 3.257-2.488 6.823-2.488 10.692h1zm2.378-10.237c1.622-3.153 3.719-5.726 6.288-7.728l-.614-.789c-2.694 2.098-4.881 4.788-6.564 8.06l.89.457zm6.287-7.727c5.007-3.868 11.244-5.817 18.742-5.817v-1c-7.679 0-14.141 1.999-19.354 6.025l.612.792zm18.742-5.817c3.943 0 6.908.092 8.905.274l.09-.996c-2.043-.186-5.044-.278-8.995-.278v1zm8.95-.224l-.051.497h.004c.001.001.003.001.005.001.001 0 .007.001.008.001s.018.002.022.002c.027.003 0 0 .03.003.004.001 0 0 .005.001h.004c.001 0 .008.001.01.001.011.001-.001 0 .01.001.002 0 .003 0 .005.001h.005c.045.005 0 0 .048.005.041.004.013.001.057.006.03.003 0 0 .031.003.022.002.012.001.034.004h.004c.002 0 .003 0 .005.001.005 0 .003 0 .009.001.01.001-.001-.001.009 0 .001.001.003.001.004.001h.005c.021.003.016.002.038.004.01.001.07.008.082.009.046.005-.001 0 .045.004.045.005.002.001.047.005.005.001.019.002.024.003.019.002.005 0 .025.002.002.001.004.001.006.001s.004 0 .006.001c.003 0 .01.001.013.001.011.001.015.001.026.003.099.01.115.011.226.023.03.003 0 0 .031.003.034.004-.004 0 .031.003.004.001.012.002.016.002.002 0 .005 0 .008.001.002 0 .005 0 .008.001.035.003-.004-.001.032.003.025.002.041.004.066.007.049.005-.015-.002.034.003.022.002.013.001.035.004.003 0 .005 0 .008.001.003 0 .006 0 .009.001h.009c.003.001.006.001.009.001.003.001.006.001.009.001.003.001.006.001.008.001.003.001.006.001.009.001.003 0 .006.001.009.001.019.002.054.006.073.008.022.002.016.001.037.003.02.002.018.002.038.004.003.001.016.002.019.002.003.001.007.001.01.001.003.001.006.001.009.001.027.003.012.001.039.004.068.007.251.026.331.034.045.005-.002 0 .044.005.003 0 .007.001.011.001.003 0 .007.001.011.001.003 0 .007.001.011.001.003.001.007.001.011.001.019.002.003.001.022.003.028.003-.005-.001.023.002.052.005-.007-.001.045.005.003 0 .089.009.092.009.054.006-.007 0 .047.005.045.005.003 0 .048.005.005 0 .019.002.024.002.022.003.002.001.024.003.004 0 .008.001.012.001.004.001.008.001.012.001.008.001.017.002.025.003.002 0 .095.01.099.01.004.001.008.001.012.001.004.001.009.001.013.002.008.001.017.002.025.002.048.005.002.001.051.006.011.001.014.001.025.002.018.002.009.001.026.003.004 0 .009.001.013.001.004.001.009.001.013.002.011.001.015.001.026.002.044.005.009.001.052.006.012.001.015.001.027.002.044.005-.018-.001.026.003.005.001.009.001.014.001.004.001.009.001.013.002.015.001.012.001.027.003.045.004.009.001.054.005.021.002.006.001.027.003.04.004-.012-.001.028.003.004 0 .009.001.013.001.005.001.01.001.014.002.022.002.006 0 .028.003.046.004.009 0 .056.005.024.003.003.001.028.003.037.004-.01-.001.028.003.004.001.009.001.014.002.005 0 .009 0 .014.001.025.003.003 0 .029.003.041.004.016.002.057.006.026.002.003 0 .029.003.035.003-.006-.001.029.003.005 0 .009.001.014.001.005.001.01.001.015.002l.029.003c.108.011.128.013.239.024l.031.004c.033.003-.003-.001.03.003.006 0 .011.001.016.001.005.001.01.001.015.002.035.003-.003 0 .031.003.023.003.039.004.062.007.035.003-.003-.001.032.003.034.003-.003-.001.031.003.005.001.011.001.016.002.005 0 .01.001.016.001.035.004-.004 0 .031.004.024.002.04.004.064.006.036.004-.003 0 .032.003.032.004.001 0 .033.004.005 0 .011.001.016.001.005.001.011.002.016.002.04.004-.007-.001.033.003.12.013.142.015.265.028.049.005-.016-.002.034.003.021.002.012.002.034.004.005 0 .011.001.017.002.005 0 .011.001.017.001.005.001.011.001.017.002.005.001.011.001.017.002.026.002.043.004.069.007.005 0 .011.001.017.002.006 0 .011.001.017.001.022.003.013.002.035.004l.102-.995c-.088-.009-.188-.019-.274-.028-.005-.001-.011-.001-.016-.002-.006 0-.012-.001-.017-.001-.006-.001-.011-.002-.017-.002-.006-.001-.011-.001-.017-.002-.025-.002-.041-.004-.066-.007-.056-.005-.077-.008-.132-.013-.118-.012-.141-.015-.256-.027-.08-.008-.171-.017-.248-.025-.004-.001-.117-.012-.121-.013-.037-.004-.082-.008-.118-.012-.042-.004-.017-.002-.059-.006-.005 0-.009-.001-.014-.001-.005-.001-.01-.001-.015-.002-.004 0-.009-.001-.014-.001-.005-.001-.01-.001-.015-.002-.004 0-.009-.001-.014-.001-.005-.001-.01-.001-.014-.002-.005 0-.01-.001-.015-.001-.004-.001-.009-.001-.014-.002-.047-.005-.01-.001-.057-.006-.071-.007-.153-.015-.221-.023-.005 0-.009 0-.014-.001-.005 0-.009-.001-.014-.001-.004-.001-.009-.001-.013-.002-.005 0-.009-.001-.013-.001-.045-.005-.01-.001-.054-.006-.021-.002-.086-.008-.105-.011-.049-.005-.004 0-.052-.005-.005 0-.009-.001-.013-.001-.005-.001-.009-.001-.013-.002-.004 0-.009 0-.013-.001-.004 0-.008-.001-.013-.001-.004-.001-.008-.001-.012-.001-.005-.001-.009-.001-.013-.002-.004 0-.009-.001-.013-.001-.004-.001-.008-.001-.013-.001-.047-.005-.003-.001-.05-.006-.063-.006-.135-.013-.195-.02-.103-.01-.088-.009-.187-.019-.014-.001-.077-.008-.091-.009-.002-.001-.042-.005-.044-.005-.004 0-.007-.001-.011-.001-.004 0-.007-.001-.011-.001-.001 0-.021-.002-.022-.002-.055-.006-.117-.012-.169-.018-.07-.007-.094-.01-.161-.016-.075-.008-.232-.024-.296-.031-.088-.009-.184-.019-.261-.027-.005 0-.115-.012-.117-.012-.035-.004-.077-.008-.109-.011-.11-.011-.284-.029-.348-.036-.058-.006-.074-.008-.121-.013-.038-.003-.061-.006-.087-.009-.016-.001-.048-.004-.052-.005h-.004c-.001 0-.002 0-.002-.001h-.005-.002c-.001 0-.003-.001-.004-.001h-.001l-.051.498zm3.952.459v47.367h1V21.43h-1zm.5 46.867h-8.262v1h8.262v-1zm-7.763.466l-.367-5.462-.998.067.367 5.462.998-.067zm-1.266-5.728c-1.757 2.343-4.457 4.114-8.15 5.285l.302.953c3.834-1.215 6.734-3.085 8.648-5.638l-.8-.6zm-8.151 5.286c-1.389.443-2.821.664-4.3.664v1c1.58 0 3.116-.237 4.604-.712l-.304-.952zm-4.3.664c-1.465 0-2.915-.149-4.351-.448l-.204.979c1.503.313 3.021.469 4.555.469v-1zm-4.351-.448c-1.426-.297-2.856-.788-4.292-1.476l-.432.902c1.502.719 3.009 1.238 4.52 1.553l.204-.979zm-4.288-1.474c-1.394-.683-2.734-1.59-4.02-2.726l-.662.75c1.346 1.189 2.76 2.149 4.242 2.874l.44-.898zm-4.015-2.721c-1.276-1.158-2.424-2.572-3.442-4.25l-.855.519c1.062 1.75 2.27 3.242 3.625 4.471l.672-.74zm25.016-36.661c-1.978-.248-3.957-.371-5.937-.371v1c1.938 0 3.875.121 5.813.363l.124-.992zm-5.937-.371c-1.988 0-4.105.362-6.348 1.079l.304.952c2.164-.691 4.177-1.031 6.044-1.031v-1zm-6.342 1.077c-2.271.694-4.222 1.802-5.842 3.327l.685.728c1.501-1.412 3.314-2.446 5.449-3.099l-.292-.956zm-5.843 3.327c-3.378 3.188-5.022 8.01-5.022 14.363h1c0-6.192 1.601-10.703 4.709-13.635l-.687-.728zm-5.022 14.363c0 6.004 1.407 10.546 4.32 13.523l.714-.7c-2.656-2.715-4.034-6.954-4.034-12.823h-1zm4.324 13.527c2.204 2.204 4.871 3.313 7.972 3.313v-1c-2.834 0-5.247-1.002-7.265-3.021l-.707.708zm7.972 3.313c3.964 0 7.253-1.45 9.829-4.344l-.747-.665c-2.381 2.675-5.395 4.009-9.082 4.009v1zm9.833-4.349c.627-.721 1.099-1.384 1.401-1.986l-.895-.447c-.249.499-.664 1.091-1.261 1.777l.755.656zm1.453-2.21V28.177h-1v28.181h1zm17.634 24.189l.142-.48-.642-.19v.67h.5zm7.757-.505l-.173-.469-.008.003.181.466zm3.901-2.341l-.334-.372-.004.004.338.368zm5.003-7.803l.461.195.08-.19-.077-.191-.464.186zM360.504 21.43v-.5h-.739l.275.686.464-.186zm9.777 0l.47-.171-.12-.329h-.35v.5zm13.677 37.728l-.47.171.496 1.368.45-1.384-.476-.155zm12.255-37.728v-.5h-.363l-.112.345.475.155zm9.685 0l.469.171.246-.671h-.715v.5zm-19.461 53.196l.469.173v-.001l-.469-.172zm-6.105 9.134l.313.389.002-.001-.315-.388zm-15.33 4.039l.055-.497h-.001l-.054.497zm-1.698-.184h-.5v.449l.446.048.054-.497zm-.142-6.589c.892.265 2.063.388 3.493.388v-1c-1.386 0-2.449-.121-3.209-.347l-.284.959zm3.493.388c1.506 0 3.036-.305 4.587-.906l-.362-.932c-1.448.561-2.856.838-4.225.838v1zm4.578-.903c1.556-.571 2.914-1.384 4.067-2.441l-.676-.737c-1.05.962-2.293 1.71-3.736 2.24l.345.938zm4.064-2.438c1.912-1.721 3.615-4.397 5.129-7.98l-.922-.389c-1.485 3.516-3.117 6.042-4.876 7.625l.669.744zm5.132-8.361l-19.461-48.469-.928.373 19.461 48.469.928-.373zM360.504 21.93h9.777v-1h-9.777v1zm9.306-.33l13.678 37.729.94-.341-13.677-37.729-.941.341zm14.624 37.713l12.255-37.729-.951-.309-12.255 37.729.951.309zm11.779-37.383h9.685v-1h-9.685v1zm9.215-.672l-19.461 53.196.939.344 19.461-53.197-.939-.343zm-19.46 53.195c-1.446 3.916-3.436 6.877-5.951 8.919l.63.776c2.687-2.181 4.767-5.309 6.259-9.349l-.938-.346zm-5.949 8.917c-3.314 2.663-7.768 4.021-13.41 4.021v1c5.801 0 10.497-1.397 14.036-4.242l-.626-.779zm-13.41 4.021c-.501 0-1.018-.03-1.552-.089l-.11.994c.568.063 1.122.095 1.662.095v-1zm-1.553-.089l-1.698-.184-.108.994 1.698.184.108-.994zm-1.252.313v-7.068h-1v7.068h1z"/>
</svg>
